<svg id="Capa_1" enable-background="new 0 0 512 512" height="512" viewBox="0 0 512 512" width="512" xmlns="http://www.w3.org/2000/svg"><g><path d="m477.958 335.205h-23.373v-6.735c0-13.777-5.658-26.258-14.777-35.241.61-1.293.951-2.737.951-4.261 0-5.523-4.477-10-10-10h-50.085c-5.523 0-10 4.477-10 10 0 1.179.205 2.31.579 3.361-9.662 9.04-15.709 21.897-15.709 36.141v6.735h-25.065v-35.133c0-22.116-11.366-41.629-28.568-53.016.357-.189.711-.381 1.062-.577 16.196-9.022 24.483-23.979 24.632-44.438l.003-103.911c0-31.437-12.394-57.227-35.842-74.583-20.811-15.404-49.409-23.547-82.7-23.547h-8.548c-33.292 0-61.889 8.143-82.701 23.547-23.447 17.356-35.84 43.146-35.84 74.583v103.014l.002.805c.137 20.417 8.383 35.341 24.51 44.359.419.234.843.464 1.272.69-17.251 11.378-28.656 30.92-28.656 53.074v35.133h-45.063c-5.523 0-10 4.477-10 10s4.477 10 10 10h4.077v146.795c0 5.523 4.477 10 10 10h415.762c5.523 0 10-4.477 10-10v-146.795h4.077c5.523 0 10-4.477 10-10s-4.478-10-10-10zm-102.414-6.735c0-16.268 13.234-29.502 29.539-29.502 16.268 0 29.502 13.234 29.502 29.502v6.735h-59.041zm-273.565-126.648-.002-103.692c0-72.496 75.425-78.13 98.542-78.13h8.548c23.117 0 98.542 5.634 98.542 78.13v103.014l-.002.733c-.131 17.994-6.987 34.645-55.844 34.645h-15.391l-1.741-12.596c33.928-11.399 52.472-39.487 52.472-80.017v-46.644c0-5.523-4.477-10-10-10h-28.375l-10.082-19.74c-1.709-3.346-5.149-5.452-8.906-5.452s-7.197 2.105-8.906 5.452l-10.082 19.74h-78.267c-5.523 0-10 4.477-10 10v46.644c0 40.529 18.544 68.617 52.474 80.017l-1.739 12.576-15.633-.044c-48.67-.207-55.489-16.772-55.608-34.636zm89.855 46.07 4.124-29.83c.707-5.111-2.592-9.921-7.614-11.104-30.431-7.165-45.861-28.377-45.861-63.049v-36.644h74.388c3.757 0 7.197-2.105 8.906-5.452l3.961-7.755 3.961 7.755c1.709 3.346 5.149 5.452 8.906 5.452h24.497v36.644c0 34.672-15.429 55.885-45.858 63.049-5.022 1.183-8.321 5.992-7.614 11.103l4.124 29.83c.422 3.051 2.192 5.622 4.658 7.144-3.175 6.523-9.879 11.031-17.618 11.031s-14.443-4.507-17.618-11.03c2.466-1.522 4.237-4.093 4.658-7.144zm-92.729 52.18c0-24.014 19.562-43.55 43.605-43.55h23.79c4.444 16.979 19.927 29.544 38.292 29.544s33.849-12.565 38.292-29.544h23.789c24.044 0 43.605 19.536 43.605 43.55v35.133h-28.921v-23.021c0-5.523-4.477-10-10-10s-10 4.477-10 10v23.021h-113.531v-23.021c0-5.523-4.477-10-10-10s-10 4.477-10 10v23.021h-28.921zm6.075 191.928v-93.249h301.64v93.249zm348.701 0h-27.061v-103.249c0-5.523-4.477-10-10-10h-321.64c-5.523 0-10 4.477-10 10v103.249h-27.061v-136.795h395.762z"/><path d="m221.31 187.416c3.907-3.903 3.91-10.235.006-14.142-3.903-3.907-10.235-3.909-14.142-.006-1.313 1.312-3.45 1.312-4.764 0-3.908-3.904-10.24-3.901-14.142.006-3.904 3.907-3.9 10.239.006 14.142 4.554 4.55 10.536 6.825 16.518 6.825s11.964-2.275 16.518-6.825z"/><path d="m236.204 146.784c5.523 0 10-4.477 10-10v-3.863c0-5.523-4.477-10-10-10s-10 4.477-10 10v3.863c0 5.523 4.477 10 10 10z"/><path d="m173.381 122.92c-5.523 0-10 4.477-10 10v3.863c0 5.523 4.477 10 10 10s10-4.477 10-10v-3.863c0-5.523-4.477-10-10-10z"/></g></svg>