<svg id="Capa_1" enable-background="new 0 0 512 512" height="512" viewBox="0 0 512 512" width="512" xmlns="http://www.w3.org/2000/svg"><path d="m502 112.937c5.522 0 10-4.478 10-10v-46.884c0-5.522-4.478-10-10-10h-492c-5.522 0-10 4.478-10 10v46.884c0 5.522 4.478 10 10 10h20.809v286.127h-20.809c-5.522 0-10 4.478-10 10v46.884c0 5.522 4.478 10 10 10h492c5.522 0 10-4.478 10-10v-46.884c0-5.522-4.478-10-10-10h-20.809v-286.127zm-482-46.884h472v26.884h-472zm30.809 207.813h61.952c-1.367 7.992-2.08 16.204-2.08 24.58v50.386h-59.872zm66.866-20h-66.866v-74.966h122.654c-26.002 18.008-45.872 44.271-55.788 74.966zm-97.675 165.197h20.809c5.522 0 10-4.478 10-10v-40.231h59.872v77.115h-90.681zm246 26.884v-50.942c0-5.522-4.478-10-10-10s-10 4.478-10 10v50.942h-30.745c-17.456-26.164-33.197-51.082-33.197-77.107 0-49.584 56.39-93.048 74.181-105.523 17.794 12.478 74.181 55.939 74.181 105.523 0 26.022-15.741 50.941-33.197 77.107zm55.162 0c15.65-24.26 29.257-49.493 29.257-77.107 0-69.678-85.249-123.791-88.879-126.061-3.242-2.029-7.361-2.029-10.604 0-3.63 2.27-88.879 56.383-88.879 126.061 0 27.616 13.606 52.849 29.256 77.107h-60.633v-147.501c0-69.101 56.218-125.318 125.319-125.318s125.319 56.218 125.319 125.318v147.501zm78.077-172.081h61.952v74.966h-59.872v-50.386c0-8.375-.712-16.588-2.08-24.58zm61.952-20h-66.866c-9.916-30.696-29.786-56.958-55.788-74.966h122.654zm30.809 165.197v26.884h-90.681v-77.115h59.872v40.231c0 5.522 4.478 10 10 10zm-30.809-260.163h-164.085c-.155 0-.309.004-.463.011-12.903-3.764-26.542-5.783-40.644-5.783-14.124 0-27.784 2.026-40.704 5.801-.252-.019-.507-.029-.764-.029h-163.722v-45.964h410.383v45.964z"/></svg>