<svg id="Capa_1" enable-background="new 0 0 512 512" height="512" viewBox="0 0 512 512" width="512" xmlns="http://www.w3.org/2000/svg"><g><path d="m511.91 310.818v-186.706c0-5.522-4.478-10-10-10h-193.818v-4.963c0-5.522-4.478-10-10-10s-10 4.478-10 10v4.963h-64.183v-4.963c0-5.522-4.478-10-10-10s-10 4.478-10 10v4.963h-193.819c-5.522 0-10 4.478-10 10v186.706c-.059.44-.09.888-.09 1.342v90.69c0 5.522 4.478 10 10 10h492c5.522 0 10-4.478 10-10v-90.69c0-.454-.031-.902-.09-1.342zm-491.82-25.187c5.371 2.47 11.281 3.813 17.352 3.813 10.144 0 19.835-3.749 27.32-10.24 7.483 6.49 17.176 10.24 27.319 10.24s19.836-3.75 27.319-10.24c7.485 6.491 17.177 10.24 27.32 10.24s19.835-3.749 27.32-10.24c7.483 6.49 17.176 10.24 27.319 10.24s19.835-3.749 27.32-10.24c7.483 6.49 17.176 10.24 27.319 10.24s19.835-3.749 27.32-10.24c7.483 6.49 17.176 10.24 27.319 10.24s19.836-3.75 27.319-10.24c7.485 6.491 17.177 10.24 27.32 10.24s19.835-3.749 27.32-10.24c7.483 6.49 17.176 10.24 27.319 10.24s19.835-3.749 27.32-10.24c7.483 6.49 17.176 10.24 27.319 10.24 6.07 0 11.98-1.344 17.352-3.813v23.439c-4.058 5.427-10.508 8.714-17.352 8.714-7.653 0-14.815-4.111-18.689-10.729-1.794-3.063-5.078-4.947-8.63-4.947-3.551 0-6.835 1.883-8.63 4.947-3.875 6.618-11.037 10.729-18.69 10.729s-14.815-4.111-18.689-10.729c-1.794-3.063-5.078-4.947-8.63-4.947-3.551 0-6.835 1.883-8.63 4.947-3.875 6.618-11.037 10.729-18.69 10.729s-14.815-4.111-18.69-10.729c-1.795-3.064-5.079-4.947-8.63-4.947-3.552 0-6.836 1.884-8.63 4.947-3.874 6.618-11.036 10.729-18.689 10.729s-14.815-4.111-18.689-10.729c-1.794-3.063-5.078-4.947-8.63-4.947-3.551 0-6.835 1.883-8.63 4.947-3.875 6.618-11.037 10.729-18.69 10.729s-14.815-4.111-18.689-10.729c-1.794-3.063-5.078-4.947-8.63-4.947-3.551 0-6.835 1.883-8.63 4.947-3.875 6.618-11.037 10.729-18.69 10.729s-14.815-4.111-18.689-10.729c-1.794-3.063-5.078-4.947-8.63-4.947-3.551 0-6.835 1.883-8.63 4.947-3.875 6.618-11.037 10.729-18.69 10.729s-14.815-4.111-18.69-10.729c-1.795-3.064-5.079-4.947-8.63-4.947-3.552 0-6.836 1.884-8.63 4.947-3.874 6.618-11.036 10.729-18.689 10.729s-14.815-4.111-18.689-10.729c-1.794-3.063-5.078-4.947-8.63-4.947-3.551 0-6.835 1.883-8.63 4.947-3.875 6.618-11.037 10.729-18.69 10.729-6.843 0-13.293-3.287-17.352-8.714v-23.439zm203.819-58.502h64.183v27.851c-1.441-.782-3.076-1.212-4.771-1.212-3.551 0-6.835 1.883-8.63 4.947-3.875 6.618-11.037 10.729-18.69 10.729s-14.815-4.111-18.689-10.729c-1.794-3.063-5.078-4.947-8.63-4.947-1.696 0-3.331.43-4.771 1.212v-27.851zm64.183-20h-64.183v-31.228h64.183zm203.818-73.017v126.618c-4.058 5.427-10.508 8.714-17.352 8.714-7.653 0-14.815-4.111-18.689-10.729-1.794-3.063-5.078-4.947-8.63-4.947-3.551 0-6.835 1.883-8.63 4.947-3.875 6.618-11.037 10.729-18.69 10.729s-14.815-4.111-18.689-10.729c-1.794-3.063-5.078-4.947-8.63-4.947-3.551 0-6.835 1.883-8.63 4.947-3.875 6.618-11.037 10.729-18.69 10.729s-14.815-4.111-18.69-10.729c-1.795-3.064-5.079-4.947-8.63-4.947-3.552 0-6.836 1.884-8.63 4.947-3.874 6.618-11.036 10.729-18.689 10.729-.857 0-1.707-.052-2.548-.153v-135.179zm-203.818 0v21.789h-64.183v-21.789zm-84.183 0v135.179c-.841.101-1.692.153-2.549.153-7.653 0-14.815-4.111-18.689-10.729-1.794-3.063-5.078-4.947-8.63-4.947-3.551 0-6.835 1.883-8.63 4.947-3.875 6.618-11.037 10.729-18.69 10.729s-14.815-4.111-18.69-10.729c-1.795-3.064-5.079-4.947-8.63-4.947-3.552 0-6.836 1.884-8.63 4.947-3.874 6.618-11.036 10.729-18.689 10.729s-14.815-4.111-18.689-10.729c-1.794-3.063-5.078-4.947-8.63-4.947-3.551 0-6.835 1.883-8.63 4.947-3.875 6.618-11.037 10.729-18.69 10.729-6.843 0-13.293-3.287-17.352-8.714v-126.618zm-183.909 258.739v-46.719c.059-.439.09-.886.09-1.342v-10.82c5.371 2.47 11.281 3.814 17.352 3.814 10.143 0 19.836-3.75 27.32-10.24 7.483 6.49 17.176 10.24 27.319 10.24s19.836-3.75 27.319-10.24c7.485 6.491 17.177 10.24 27.32 10.24s19.835-3.749 27.32-10.24c7.483 6.49 17.176 10.24 27.319 10.24s19.835-3.749 27.32-10.24c7.483 6.49 17.176 10.24 27.319 10.24s19.835-3.749 27.32-10.24c7.483 6.49 17.176 10.24 27.319 10.24s19.836-3.75 27.319-10.24c7.485 6.491 17.177 10.24 27.32 10.24s19.835-3.749 27.32-10.24c7.483 6.49 17.176 10.24 27.319 10.24s19.835-3.749 27.32-10.24c7.483 6.49 17.176 10.24 27.319 10.24 6.071 0 11.981-1.344 17.352-3.814v10.82c0 .455.031.903.09 1.342v46.719z"/><path d="m51.937 181.133h35.293c5.522 0 10-4.478 10-10s-4.478-10-10-10h-35.293c-5.522 0-10 4.478-10 10s4.477 10 10 10z"/><path d="m130.81 181.133h35.294c5.522 0 10-4.478 10-10s-4.478-10-10-10h-35.294c-5.522 0-10 4.478-10 10s4.477 10 10 10z"/><path d="m126.667 207.129h-35.294c-5.522 0-10 4.478-10 10s4.478 10 10 10h35.294c5.522 0 10-4.478 10-10s-4.478-10-10-10z"/><path d="m414.77 217.129c0 5.522 4.478 10 10 10h35.294c5.522 0 10-4.478 10-10s-4.478-10-10-10h-35.294c-5.523 0-10 4.477-10 10z"/><path d="m345.896 227.129h35.294c5.522 0 10-4.478 10-10s-4.478-10-10-10h-35.294c-5.522 0-10 4.478-10 10s4.478 10 10 10z"/><path d="m385.333 181.133h35.294c5.522 0 10-4.478 10-10s-4.478-10-10-10h-35.294c-5.522 0-10 4.478-10 10s4.478 10 10 10z"/></g></svg>