<svg id="Capa_1" enable-background="new 0 0 512 512" height="512" viewBox="0 0 512 512" width="512" xmlns="http://www.w3.org/2000/svg"><path d="m502 224.787h-30.13v-33.653c0-11.168-9.085-20.254-20.253-20.254h-30.215v-7.306c0-14.242-11.587-25.829-25.83-25.829h-48.213c-14.243 0-25.83 11.587-25.83 25.829v61.213h-131.058v-61.213c0-14.242-11.587-25.829-25.83-25.829h-48.213c-14.243 0-25.83 11.587-25.83 25.829v7.306h-30.214c-11.168 0-20.253 9.086-20.253 20.254v33.653h-30.131c-5.523 0-10 4.478-10 10v53.617c0 5.522 4.477 10 10 10h30.13v22.462c0 11.168 9.085 20.254 20.253 20.254h30.215v7.306c0 14.242 11.587 25.829 25.83 25.829h48.213c14.243 0 25.83-11.587 25.83-25.829v-50.021h131.059v50.021c0 14.242 11.587 25.829 25.83 25.829h48.213c14.243 0 25.83-11.587 25.83-25.829v-7.306h30.215c11.168 0 20.253-9.086 20.253-20.254v-22.462h30.129c5.523 0 10-4.478 10-10v-53.617c0-5.522-4.477-10-10-10zm-482 53.617v-33.617h20.13v33.617zm40.384 42.716c-.14 0-.253-.114-.253-.254v-129.732c0-.14.114-.254.253-.254h30.215v130.24zm110.087 27.306c0 3.214-2.615 5.829-5.83 5.829h-48.213c-3.214 0-5.83-2.615-5.83-5.829v-184.852c0-3.214 2.615-5.829 5.83-5.829h48.213c3.214 0 5.83 2.615 5.83 5.829zm20-70.022v-33.617h131.059v33.617zm210.93 70.022c0 3.214-2.615 5.829-5.83 5.829h-48.213c-3.214 0-5.83-2.615-5.83-5.829v-184.852c0-3.214 2.615-5.829 5.83-5.829h48.213c3.214 0 5.83 2.615 5.83 5.829zm50.469-27.56c0 .14-.114.254-.253.254h-30.215v-130.24h30.215c.14 0 .253.114.253.254zm40.13-42.462h-20.13v-33.617h20.13z"/></svg>