<svg id="Capa_1" enable-background="new 0 0 512 512" height="512" viewBox="0 0 512 512" width="512" xmlns="http://www.w3.org/2000/svg"><g><path d="m483.589 72.752h-455.178c-15.666 0-28.411 12.745-28.411 28.411v309.674c0 15.666 12.745 28.411 28.411 28.411h455.178c15.666 0 28.411-12.745 28.411-28.411v-309.674c0-15.666-12.745-28.411-28.411-28.411zm-455.178 20h455.178c4.638 0 8.411 3.773 8.411 8.411v23.926h-472v-23.926c0-4.638 3.773-8.411 8.411-8.411zm463.589 80.332h-472v-27.995h472zm-8.411 246.164h-455.178c-4.638 0-8.411-3.773-8.411-8.411v-217.753h472v217.753c0 4.638-3.773 8.411-8.411 8.411z"/><path d="m442.032 286.988-62.35-42.487c-6.32-4.305-14.443-4.759-21.203-1.186-6.759 3.574-10.958 10.544-10.958 18.189v84.973c0 7.646 4.199 14.615 10.959 18.189 3.028 1.601 6.33 2.393 9.621 2.393 4.055 0 8.094-1.203 11.581-3.58l62.35-42.486c5.628-3.835 8.989-10.19 8.989-17.001s-3.359-13.168-8.989-17.004zm-11.261 17.478-62.35 42.486c-.137.092-.289.193-.593.033-.307-.162-.307-.346-.307-.508v-84.973c0-.162 0-.347.307-.509.116-.062.211-.085.29-.085.13 0 .22.062.303.118l62.349 42.486c.095.063.252.171.252.476-.001.305-.158.411-.251.476z"/><path d="m304.106 214.146h-245.683c-5.522 0-10 4.478-10 10v163.157c0 5.522 4.478 10 10 10h245.684c5.522 0 10-4.478 10-10v-163.157c-.001-5.523-4.478-10-10.001-10zm-10 163.157h-225.683v-143.157h225.684v143.157z"/><path d="m236.195 281.047h4.955v59.964c0 5.522 4.478 10 10 10s10-4.478 10-10v-69.964c0-5.522-4.478-10-10-10h-14.955c-5.522 0-10 4.478-10 10s4.478 10 10 10z"/><path d="m97.859 328.324h24.918c-.027 3.727-.057 7.296-.085 10.563-.047 5.522 4.392 10.038 9.914 10.086h.088c5.482 0 9.95-4.421 9.998-9.914.022-2.643.054-6.393.087-10.783 5.061-.495 9.015-4.762 9.015-9.952 0-5.145-3.885-9.382-8.881-9.938.091-16.381.125-32.887-.08-35.356-.536-6.443-4.471-11.718-10.023-13.438-5.543-1.715-11.375.354-15.601 5.541-3.979 4.881-20.98 35.447-28.105 48.362-1.709 3.098-1.654 6.867.145 9.914s5.072 4.915 8.61 4.915zm25.114-34.303c-.014 4.414-.036 9.286-.063 14.303h-8.042c2.85-5.078 5.619-9.969 8.105-14.303z"/><path d="m191.559 352.438c16.67 0 30.231-13.562 30.231-30.231v-32.356c0-16.67-13.562-30.231-30.231-30.231s-30.232 13.562-30.232 30.231v32.356c-.001 16.67 13.562 30.231 30.232 30.231zm-10.233-62.587c0-5.642 4.59-10.231 10.232-10.231s10.231 4.59 10.231 10.231v32.356c0 5.642-4.59 10.231-10.231 10.231-5.643 0-10.232-4.59-10.232-10.231z"/></g></svg>