<svg id="Capa_1" enable-background="new 0 0 512 512" height="512" viewBox="0 0 512 512" width="512" xmlns="http://www.w3.org/2000/svg"><g><path d="m474.253 190.769c24.08-17.905 37.747-45.308 37.747-76.218 0-53.099-43.207-96.297-96.316-96.297-30.424 0-57.565 13.313-75.498 36.771-14.004-5.422-28.551-9.475-43.477-12.092v-.802c0-22.442-18.262-40.701-40.709-40.701s-40.709 18.259-40.709 40.701v.802c-14.926 2.617-29.473 6.67-43.477 12.092-17.933-23.458-45.073-36.771-75.498-36.771-53.109 0-96.316 43.198-96.316 96.297 0 30.91 13.667 58.313 37.747 76.218-9.583 25.71-14.583 53.199-14.583 81.457 0 56.863 20.249 110.615 57.338 153.02-19.258 4.345-33.684 21.587-33.684 42.135 0 23.815 19.379 43.19 43.199 43.19 22.91 0 41.711-17.924 43.114-40.482 36.522 22.772 78.759 34.954 122.868 34.954s86.346-12.182 122.868-34.954c1.403 22.559 20.204 40.482 43.114 40.482 23.82 0 43.199-19.375 43.199-43.19 0-20.548-14.426-37.79-33.684-42.135 37.089-42.405 57.338-96.156 57.338-153.02.002-28.258-4.999-55.747-14.581-81.457zm-58.569-152.515c42.081 0 76.316 34.227 76.316 76.297 0 22.73-9.308 43.039-25.864 57.124-11.257-23.476-26.541-45.122-45.496-64.076-18.247-18.246-38.99-33.091-61.459-44.215 14.072-16.088 34.155-25.13 56.503-25.13zm-159.684-16.824c10.803 0 19.701 8.312 20.629 18.874-6.82-.595-13.701-.896-20.629-.896s-13.809.301-20.629.896c.928-10.563 9.826-18.874 20.629-18.874zm-236 93.121c0-42.07 34.235-76.297 76.316-76.297 22.348 0 42.43 9.042 56.503 25.13-22.469 11.124-43.212 25.969-61.459 44.215-18.955 18.954-34.24 40.6-45.496 64.076-16.556-14.085-25.864-34.394-25.864-57.124zm70.018 376.019c-12.792 0-23.199-10.403-23.199-23.19 0-12.788 10.407-23.191 23.199-23.191s23.198 10.403 23.198 23.191c0 12.787-10.406 23.19-23.198 23.19zm-46.854-218.344c0-117.348 95.478-212.817 212.836-212.817s212.836 95.47 212.836 212.817-95.478 212.816-212.836 212.816-212.836-95.469-212.836-212.816zm402.018 195.154c0 12.787-10.407 23.19-23.199 23.19s-23.198-10.403-23.198-23.19c0-12.788 10.406-23.191 23.198-23.191s23.199 10.403 23.199 23.191z"/><path d="m256 91.93c-99.423 0-180.31 80.88-180.31 180.295s80.887 180.296 180.31 180.296 180.31-80.881 180.31-180.296-80.887-180.295-180.31-180.295zm10 340.281v-10.941c0-5.522-4.478-10-10-10s-10 4.478-10 10v10.942c-80.447-4.975-145.025-69.546-150-149.986h10.943c5.522 0 10-4.478 10-10s-4.478-10-10-10h-10.944c4.975-80.44 69.553-145.012 150.001-149.987v10.942c0 5.522 4.478 10 10 10s10-4.478 10-10v-10.942c80.447 4.975 145.026 69.547 150.001 149.987h-10.943c-5.522 0-10 4.478-10 10s4.478 10 10 10h10.942c-4.975 80.44-69.553 145.011-150 149.985z"/><path d="m340.438 262.226-74.438-.001v-94.548c0-5.522-4.478-10-10-10s-10 4.478-10 10v104.548c0 5.522 4.478 10 10 10l84.438.001c5.522 0 10-4.478 10-10s-4.477-10-10-10z"/></g></svg>