<svg id="Capa_1" enable-background="new 0 0 512 512" height="512" viewBox="0 0 512 512" width="512" xmlns="http://www.w3.org/2000/svg"><g><path d="m326.893 103.001v-21.987c0-13.358-10.868-24.227-24.227-24.227h-36.666v-36.787h72.188l17.135 17.143c1.953 1.954 4.513 2.931 7.073 2.931 2.558 0 5.117-.976 7.069-2.928 3.906-3.904 3.908-10.235.003-14.142l-20.063-20.073c-1.876-1.877-4.42-2.931-7.073-2.931h-143.753c-5.523 0-10 4.478-10 10s4.477 10 10 10h47.421v36.787h-36.666c-13.359 0-24.228 10.868-24.228 24.227v21.988c-30.038 8.19-52.186 35.717-52.186 68.321v330.677c0 5.522 4.477 10 10 10h226.16c5.523 0 10-4.478 10-10v-330.678c0-32.604-22.149-60.131-52.187-68.321zm-121.787-21.987c0-2.33 1.896-4.227 4.228-4.227h93.332c2.331 0 4.227 1.896 4.227 4.227v19.508h-101.787zm-1.398 39.507h104.585c28.004 0 50.787 22.789 50.787 50.801v35.208h-206.16v-35.208c0-28.011 22.784-50.801 50.788-50.801zm155.372 279.659h-206.16v-173.65h206.16zm-206.16 91.82v-71.82h206.16v71.82z"/><path d="m256 367.876c24.207 0 43.901-19.697 43.901-43.909 0-21.905-30.826-52.361-37.006-58.244-3.861-3.676-9.929-3.676-13.79 0-6.18 5.883-37.006 36.339-37.006 58.244 0 24.212 19.694 43.909 43.901 43.909zm0-80.674c11.363 12.166 23.901 28.653 23.901 36.765 0 13.184-10.722 23.909-23.901 23.909s-23.901-10.726-23.901-23.909c0-8.112 12.539-24.601 23.901-36.765z"/><path d="m203.894 162.787h99.064c5.523 0 10-4.478 10-10s-4.477-10-10-10h-99.064c-5.523 0-10 4.478-10 10s4.477 10 10 10z"/><path d="m302.958 448h-99.064c-5.523 0-10 4.478-10 10s4.477 10 10 10h99.064c5.523 0 10-4.478 10-10s-4.478-10-10-10z"/></g></svg>