<svg id="Capa_1" enable-background="new 0 0 512 512" height="512" viewBox="0 0 512 512" width="512" xmlns="http://www.w3.org/2000/svg"><g><path d="m116.802 334.852v123.148c0 5.522 4.477 10 10 10h258.396c5.523 0 10-4.478 10-10v-123.148c0-5.522-4.477-10-10-10h-258.396c-5.523 0-10 4.477-10 10zm20 10h238.396v103.148h-238.396z"/><path d="m442.054 280.852h-87.573v-32.938c0-5.522-4.477-10-10-10h-57.144v-79.328h33.939v20.807c0 5.522 4.477 10 10 10s10-4.478 10-10v-20.807h27.826c2.91 0 5.676-1.268 7.576-3.473s2.745-5.128 2.314-8.006l-20.72-138.586c-.732-4.897-4.938-8.521-9.89-8.521h-184.764c-4.952 0-9.158 3.624-9.89 8.521l-20.721 138.585c-.43 2.878.415 5.801 2.314 8.006s4.666 3.473 7.576 3.473h81.766v79.328h-57.144c-5.523 0-10 4.478-10 10v32.938h-87.573c-5.523 0-10 4.478-10 10s4.477 10 10 10h2.856v201.149c0 5.522 4.477 10 10 10h346.396c5.523 0 10-4.478 10-10v-201.148h2.856c5.523 0 10-4.478 10-10s-4.477-10-10-10zm-269.82-260.852h44.24l-8.919 54.804c-.887 5.451 2.813 10.59 8.264 11.477.544.089 1.085.132 1.619.132 4.815 0 9.059-3.488 9.858-8.396l9.441-58.017h38.526l9.442 58.017c.799 4.907 5.042 8.396 9.858 8.396.534 0 1.075-.043 1.619-.132 5.451-.887 9.151-6.025 8.264-11.477l-8.92-54.804h44.24l17.73 118.585h-202.993zm72.429 138.585h22.675v79.328h-22.675zm-67.144 99.328h156.962v22.938h-156.962zm241.679 234.087h-326.396v-191.148h326.396z"/><path d="m280.511 367.979h-49.021c-5.523 0-10 4.478-10 10s4.477 10 10 10h49.021c5.523 0 10-4.478 10-10s-4.477-10-10-10z"/></g></svg>