<svg id="Capa_1" enable-background="new 0 0 512 512" height="512" viewBox="0 0 512 512" width="512" xmlns="http://www.w3.org/2000/svg"><g><path d="m502 220.888h-93.831c16.921-22.407 30.236-49.715 30.236-88.9v-8.003c0-5.522-4.478-10-10-10h-162.405v-60.613h22.957v9.149c0 5.522 4.478 10 10 10s10-4.478 10-10v-19.149c0-5.522-4.478-10-10-10h-42.957c-5.522 0-10 4.478-10 10v70.612h-162.404c-5.522 0-10 4.478-10 10v8.003c0 39.185 13.315 66.493 30.236 88.9h-93.832c-5.522 0-10 4.478-10 10v46.336c0 5.522 4.478 10 10 10h9.826v181.404c0 5.522 4.478 10 10 10h452.348c5.522 0 10-4.478 10-10v-181.403h9.826c5.522 0 10-4.478 10-10v-46.336c0-5.523-4.478-10-10-10zm-408.392-86.904h324.783c-.484 37.49-14.644 62.266-36.008 86.903h-252.767c-21.364-24.637-35.523-49.412-36.008-86.903zm-73.608 106.904h472v26.336h-472zm19.826 46.336h206.174v24.675h-171.535c-5.522 0-10 4.478-10 10v102.055c0 5.522 4.478 10 10 10h171.535v24.675h-206.174zm206.174 126.729h-161.535v-82.055h161.535zm20-82.055h161.535v82.055h-161.535zm206.174 126.73h-206.174v-24.675h171.535c5.522 0 10-4.478 10-10v-102.055c0-5.522-4.478-10-10-10h-171.535v-24.675h206.174z"/><path d="m204.713 395.158c5.522 0 10-4.478 10-10v-20.008c0-5.522-4.478-10-10-10s-10 4.478-10 10v20.008c0 5.523 4.477 10 10 10z"/><path d="m307.287 355.15c-5.522 0-10 4.478-10 10v20.008c0 5.522 4.478 10 10 10s10-4.478 10-10v-20.008c0-5.522-4.477-10-10-10z"/></g></svg>