<svg id="Capa_1" enable-background="new 0 0 512 512" height="512" viewBox="0 0 512 512" width="512" xmlns="http://www.w3.org/2000/svg"><g><path d="m377.98 223.915c-30.748-26.499-70.006-41.093-110.543-41.093h-22.875c-40.537 0-79.795 14.594-110.543 41.093-30.416 26.213-50.617 62.335-56.881 101.711-.46 2.891.37 5.837 2.27 8.063s4.68 3.508 7.606 3.508h337.971c2.927 0 5.706-1.282 7.606-3.508 1.899-2.227 2.729-5.173 2.27-8.063-6.263-39.376-26.465-75.498-56.881-101.711zm-278.766 93.282c16.045-65.965 76.55-114.375 145.349-114.375h22.875c68.799 0 129.304 48.41 145.349 114.375z"/><path d="m502 365.197h-17.034v-12.847c0-58.104-22.627-112.729-63.713-153.815-35.926-35.925-82.205-57.737-132.109-62.649 3.388-5.725 5.334-12.398 5.334-19.518 0-21.204-17.261-38.454-38.478-38.454s-38.478 17.25-38.478 38.454c0 7.119 1.946 13.793 5.334 19.518-49.904 4.912-96.183 26.724-132.109 62.649-41.086 41.085-63.713 95.711-63.713 153.815v12.848h-17.034c-5.522 0-10 4.478-10 10v34.554c0 13.419 10.917 24.336 24.336 24.336h463.328c13.419 0 24.336-10.917 24.336-24.336v-34.554c0-5.523-4.478-10.001-10-10.001zm-246-267.284c10.188 0 18.478 8.278 18.478 18.454s-8.289 18.455-18.478 18.455-18.478-8.279-18.478-18.455 8.29-18.454 18.478-18.454zm-208.966 254.437c0-108.917 88.61-197.527 197.528-197.527h22.875c108.918 0 197.528 88.61 197.528 197.527v12.848h-417.931zm444.966 57.401c0 2.391-1.945 4.336-4.336 4.336h-463.328c-2.391 0-4.336-1.945-4.336-4.336v-24.554h472z"/></g></svg>