<svg id="Capa_1" enable-background="new 0 0 512 512" height="512" viewBox="0 0 512 512" width="512" xmlns="http://www.w3.org/2000/svg"><g><path d="m448.67 96.284h-56.82v-86.284c0-5.522-4.478-10-10-10h-318.52c-5.523 0-10 4.478-10 10v459.124c0 23.642 19.473 42.876 43.41 42.876h318.52c23.937 0 43.41-19.234 43.41-42.876v-362.84c0-5.522-4.478-10-10-10zm-351.93 395.716c-12.908 0-23.409-10.262-23.409-22.876v-449.124h298.52v449.124c0 8.404 2.461 16.252 6.708 22.876zm341.93-22.876c0 12.614-10.502 22.876-23.41 22.876s-23.409-10.262-23.409-22.876v-352.84h46.819z"/><path d="m110.659 123.421c5.523 0 10-4.478 10-10v-20.962l17.638 25.541c2.762 3.991 7.607 5.739 12.056 4.349 4.512-1.409 7.543-5.717 7.542-10.815l-.497-51.349c-.053-5.49-4.52-9.903-9.998-9.903h-.099c-5.522.054-9.956 4.574-9.903 10.097l.208 21.428-18.72-27.107c-2.486-3.602-7.026-5.164-11.205-3.864-4.178 1.303-7.024 5.171-7.024 9.547v53.04c.002 5.52 4.479 9.998 10.002 9.998z"/><path d="m176.865 123.179h22.186c5.523 0 10-4.478 10-10s-4.477-10-10-10h-12.186v-6.328h10.55c5.523 0 10-4.478 10-10s-4.477-10-10-10h-10.55v-6.327h12.186c5.523 0 10-4.478 10-10s-4.477-10-10-10h-22.186c-5.523 0-10 4.478-10 10v52.655c0 5.522 4.477 10 10 10z"/><path d="m321.11 123.421c12.828 0 23.622-8.31 25.667-19.759 1.49-8.347-2.223-20.105-17.593-25.774-5.804-2.142-11.254-4.457-13.615-5.481-.006-.049-.004-.112.008-.195.092-.635.774-1.188 1.873-1.52 5.793-1.746 11.492 2.736 11.55 2.782l.175.14c4.156 3.325 10.206 2.727 13.631-1.347 3.786-4.504 2.788-11.322-2.146-14.527-9.626-6.253-19.033-9.193-28.98-6.198-8.601 2.591-14.693 9.423-15.9 17.828-1.144 7.967 2.314 15.634 9.023 20.009.442.288.906.54 1.388.755.312.14 7.729 3.441 16.072 6.519 3.612 1.333 4.925 2.934 4.825 3.495-.198 1.106-2.214 3.274-5.979 3.274-6.444 0-10.132-3.516-11.108-4.593-3.789-4.181-10.309-4.414-14.39-.445-3.936 3.828-3.731 10.397.042 14.384 6.416 6.779 15.652 10.653 25.457 10.653z"/><path d="m222.377 114.563c.095.479.225.949.388 1.409 1.587 4.464 5.821 7.448 10.552 7.448h.078c4.762-.033 8.992-3.085 10.525-7.595.03-.087.058-.174.085-.262l6.606-21.342 6.576 21.345c.042.136.087.271.135.405 1.586 4.464 5.82 7.448 10.552 7.448h.078c4.763-.033 8.992-3.085 10.525-7.595.141-.414.255-.838.34-1.267l10.395-52.229c1.078-5.417-2.439-10.682-7.855-11.76-5.419-1.075-10.682 2.438-11.76 7.855l-3.565 17.916-5.855-19.006c-1.626-5.277-7.219-8.233-12.501-6.612-3.546 1.093-6.046 3.977-6.812 7.354l-5.657 18.274-3.563-18.012c-1.072-5.418-6.334-8.945-11.75-7.869-5.418 1.071-8.941 6.332-7.87 11.75z"/><path d="m337.1 291.022h-226.441c-5.523 0-10 4.478-10 10s4.477 10 10 10h226.441c5.522 0 10-4.478 10-10s-4.477-10-10-10z"/><path d="m337.1 333.32h-226.441c-5.523 0-10 4.478-10 10s4.477 10 10 10h226.441c5.522 0 10-4.478 10-10s-4.477-10-10-10z"/><path d="m337.1 172.109h-226.441c-5.523 0-10 4.478-10 10v77.616c0 5.522 4.477 10 10 10h226.441c5.522 0 10-4.478 10-10v-77.616c0-5.522-4.477-10-10-10zm-10 77.617h-206.441v-57.616h206.441z"/><path d="m337.1 375.617h-226.441c-5.523 0-10 4.478-10 10v47.617c0 5.522 4.477 10 10 10h226.441c5.522 0 10-4.478 10-10v-47.617c0-5.522-4.477-10-10-10zm-10 47.617h-206.441v-27.617h206.441z"/></g></svg>