<svg id="Capa_1" enable-background="new 0 0 512 512" height="512" viewBox="0 0 512 512" width="512" xmlns="http://www.w3.org/2000/svg"><g><path d="m201.886 169.178 19.805 19.315-4.676 27.277c-.643 3.752.9 7.544 3.98 9.78 3.078 2.237 7.162 2.532 10.532.759l24.473-12.873 24.473 12.874c1.464.771 3.063 1.15 4.655 1.15 2.072 0 4.136-.644 5.877-1.909 3.08-2.236 4.623-6.028 3.98-9.78l-4.676-27.277 19.805-19.315c2.725-2.657 3.704-6.631 2.527-10.25-1.176-3.62-4.305-6.258-8.071-6.805l-27.363-3.979-12.238-24.813c-1.685-3.414-5.161-5.576-8.969-5.576s-7.284 2.162-8.969 5.576l-12.238 24.813-27.363 3.979c-3.767.547-6.896 3.185-8.071 6.805-1.177 3.618-.198 7.592 2.527 10.249zm40.988-1.999c3.258-.474 6.074-2.52 7.53-5.472l5.596-11.347 5.596 11.347c1.456 2.952 4.272 4.998 7.53 5.472l12.525 1.821-9.068 8.845c-2.355 2.298-3.43 5.606-2.874 8.849l2.14 12.48-11.192-5.888c-1.458-.767-3.057-1.15-4.656-1.15s-3.198.384-4.656 1.15l-11.192 5.888 2.14-12.48c.556-3.242-.519-6.551-2.874-8.849l-9.07-8.845z"/><path d="m502 425.244h-33.733v-275.204c0-5.522-4.478-10-10-10h-82.833v-55.516h10.88c5.522 0 10-4.478 10-10v-39.004c0-5.522-4.478-10-10-10h-260.627c-5.522 0-10 4.478-10 10v39.005c0 5.522 4.478 10 10 10h10.88v55.516h-82.834c-5.522 0-10 4.478-10 10v275.204h-33.733c-5.522 0-10 4.478-10 10v41.236c0 5.522 4.478 10 10 10h492c5.522 0 10-4.478 10-10v-41.236c0-5.523-4.478-10.001-10-10.001zm-53.733-68.18h-26.416v-121.515h26.416zm0-197.024v55.509h-36.416c-5.522 0-10 4.478-10 10v141.516c0 5.522 4.478 10 10 10h36.416v48.18h-72.833v-265.205zm-312.58-114.52h240.627v19.005h-240.627zm219.747 39.004v340.72h-42.324v-129.954h9.376c5.522 0 10-4.478 10-10s-4.478-10-10-10h-132.972c-5.522 0-10 4.478-10 10s4.478 10 10 10h9.376v129.954h-42.323v-340.72zm-136.544 210.766h74.221v129.954h-74.221zm-155.157-59.741h26.416v121.516h-26.416zm0 141.515h36.416c5.522 0 10-4.478 10-10v-141.515c0-5.522-4.478-10-10-10h-36.416v-55.509h72.833v265.204h-72.833zm428.267 89.416h-472v-21.236h472z"/></g></svg>