<svg id="Capa_1" enable-background="new 0 0 512 512" height="512" viewBox="0 0 512 512" width="512" xmlns="http://www.w3.org/2000/svg"><g><path d="m410.739 68.752h-81.563v-58.752c0-5.522-4.477-10-10-10h-217.915c-21.852 0-39.63 17.778-39.63 39.631v363.986c0 21.853 17.778 39.631 39.63 39.631h81.563v29.121c0 21.853 17.778 39.631 39.631 39.631h188.283c21.852 0 39.63-17.778 39.63-39.631v-363.986c.001-21.853-17.777-39.631-39.629-39.631zm-175.345 0 73.781-36.689v36.689zm-52.569 10.189v344.305h-81.564v.002c-10.824 0-19.63-8.807-19.63-19.631v-363.986c0-10.824 8.806-19.631 19.63-19.631h187.254l-99.977 49.715c-.827.404-2.913 1.561-4.351 4.049-1.259 2.177-1.369 4.244-1.362 5.177zm247.544 393.428c0 10.824-8.806 19.631-19.63 19.631h-188.283c-10.825 0-19.631-8.807-19.631-19.631v-383.617h207.914c10.824 0 19.63 8.807 19.63 19.631z"/><path d="m402.326 241.538-53.039-7.715-23.721-48.111c-1.684-3.416-5.162-5.578-8.969-5.578s-7.285 2.162-8.969 5.578l-23.722 48.111-53.039 7.715c-3.766.548-6.894 3.185-8.071 6.804-1.176 3.619-.197 7.592 2.527 10.249l38.385 37.453-9.062 52.886c-.643 3.752.9 7.544 3.981 9.78 3.08 2.236 7.163 2.53 10.532.758l47.438-24.964 47.437 24.964c1.464.771 3.063 1.15 4.656 1.15 2.072 0 4.135-.644 5.876-1.908 3.081-2.236 4.624-6.028 3.981-9.78l-9.062-52.886 38.385-37.453c2.724-2.657 3.703-6.63 2.527-10.249-1.177-3.619-4.305-6.256-8.071-6.804zm-50.568 43.859c-2.354 2.297-3.428 5.604-2.873 8.846l6.526 38.087-34.158-17.976c-2.915-1.533-6.398-1.533-9.313 0l-34.158 17.976 6.526-38.087c.555-3.241-.519-6.549-2.873-8.846l-27.654-26.982 38.208-5.558c3.258-.474 6.074-2.521 7.53-5.474l17.078-34.637 17.078 34.637c1.456 2.953 4.272 5 7.53 5.474l38.208 5.558z"/><path d="m240.875 208.673 75.722-67.217 75.722 67.217c1.905 1.69 4.274 2.521 6.635 2.521 2.759 0 5.506-1.136 7.482-3.361 3.667-4.131 3.291-10.451-.84-14.117l-9.732-8.639v-32.05c0-5.522-4.477-10-10-10s-10 4.478-10 10v14.296l-52.628-46.717c-3.787-3.362-9.489-3.361-13.277 0l-82.361 73.109c-4.13 3.666-4.506 9.986-.84 14.117s9.987 4.507 14.117.841z"/><path d="m378.958 437.248h-124.722c-5.523 0-10 4.478-10 10s4.477 10 10 10h124.721c5.523 0 10-4.478 10-10s-4.477-10-9.999-10z"/><path d="m398.958 389.468h-164.722c-5.523 0-10 4.478-10 10s4.477 10 10 10h164.721c5.523 0 10-4.478 10-10s-4.477-10-9.999-10z"/></g></svg>