<svg id="Capa_1" enable-background="new 0 0 512 512" height="512" viewBox="0 0 512 512" width="512" xmlns="http://www.w3.org/2000/svg"><path d="m479.686 56.478h-114.262c-5.522 0-10 4.478-10 10v161.912c0 3.145 1.479 6.105 3.992 7.994l53.139 39.931v86.924c0 22.536-18.36 40.87-40.929 40.87s-40.929-18.334-40.929-40.87v-272.155c0-50.224-40.901-91.084-91.176-91.084-39.927 0-73.941 25.771-86.252 61.537-72.665 2.676-130.955 62.563-130.955 135.795 0 31.086 10.229 60.344 29.579 84.609 17.115 21.462 40.549 37.364 66.621 45.354v154.198c0 3.293 1.621 6.375 4.335 8.241l29.831 20.506c1.707 1.173 3.686 1.759 5.665 1.759s3.959-.587 5.664-1.759l29.833-20.506c2.715-1.866 4.336-4.948 4.336-8.241v-16.604c0-3.227-1.557-6.255-4.181-8.132l-9.756-6.981 9.757-6.982c2.623-1.878 4.18-4.905 4.18-8.132v-5.814c0-2.654-1.055-5.199-2.933-7.075l-3.916-3.911 3.916-3.911c1.878-1.876 2.933-4.421 2.933-7.075v-9.061c0-3.227-1.557-6.254-4.18-8.132l-9.757-6.982 9.756-6.981c2.624-1.877 4.181-4.905 4.181-8.132v-40.292c26.072-7.99 49.505-23.893 66.62-45.354 19.351-24.266 29.578-53.523 29.578-84.609 0-69.502-52.504-126.984-119.971-134.946 11.065-24.944 36.09-42.387 65.117-42.387 39.246 0 71.175 31.888 71.175 71.084v272.154c0 33.563 27.332 60.87 60.929 60.87s60.929-27.307 60.929-60.87v-86.924l53.139-39.931c2.514-1.889 3.992-4.85 3.992-7.994v-161.911c0-5.523-4.478-10-10-10zm-321.34 97.483c5.522 0 10-4.478 10-10v-16.188c34.077 4.863 60.358 34.203 60.358 69.559 0 38.746-31.563 70.268-70.358 70.268s-70.357-31.521-70.357-70.268c0-35.355 26.281-64.695 60.357-69.559v16.188c0 5.522 4.477 10 10 10zm116.031 43.371c0 53.67-36.415 99.982-88.555 112.623-4.485 1.088-7.644 5.104-7.644 9.719v42.773l-16.938 12.122c-2.624 1.877-4.181 4.905-4.181 8.132s1.557 6.254 4.181 8.132l16.807 12.028-7.935 7.926c-1.878 1.876-2.933 4.421-2.933 7.075s1.055 5.199 2.933 7.075l6.042 6.034-14.914 10.674c-2.624 1.878-4.181 4.905-4.181 8.132s1.557 6.255 4.181 8.132l16.938 12.122v6.202l-19.833 13.632-19.831-13.632v-156.56c0-4.615-3.158-8.631-7.644-9.719-52.141-12.641-88.557-58.953-88.557-112.623 0-60.696 46.961-110.643 106.498-115.501-.309 3.043-.467 6.13-.467 9.253v16.531c-45.135 4.987-80.357 43.32-80.357 89.717 0 49.773 40.534 90.268 90.357 90.268 49.824 0 90.358-40.494 90.358-90.268 0-46.398-35.222-84.731-80.358-89.717v-16.53c0-3.104.2-6.162.589-9.162 59.037 5.359 105.444 55.073 105.444 115.41zm195.309 26.064-37.131 27.902v-43.464c0-5.522-4.478-10-10-10s-10 4.478-10 10v43.464l-37.131-27.902v-146.918h94.262z"/></svg>