<svg id="Capa_1" enable-background="new 0 0 512 512" height="512" viewBox="0 0 512 512" width="512" xmlns="http://www.w3.org/2000/svg"><g><path d="m467.521 49.575h-423.043c-24.525 0-44.478 19.952-44.478 44.478v286.403c0 23.181 17.825 42.277 40.488 44.301l27.14 33.916c1.898 2.371 4.771 3.752 7.808 3.752h61.021c3.038 0 5.91-1.381 7.808-3.752l26.998-33.738h169.474l26.998 33.738c1.897 2.371 4.771 3.752 7.808 3.752h61.021c3.037 0 5.91-1.381 7.808-3.752l27.14-33.916c22.664-2.024 40.489-21.12 40.489-44.301v-286.403c-.001-24.526-19.954-44.478-44.48-44.478zm-335.869 392.85h-51.41l-13.996-17.49h79.402zm300.106 0h-51.409l-13.996-17.49h79.401zm60.242-61.969c0 13.497-10.981 24.479-24.479 24.479h-423.043c-13.497 0-24.478-10.982-24.478-24.479v-286.403c0-13.497 10.981-24.478 24.478-24.478h423.043c13.497 0 24.479 10.98 24.479 24.478z"/><path d="m458 93.575h-404c-5.523 0-10 4.478-10 10v46.828h-4.873c-5.523 0-10 4.478-10 10s4.477 10 10 10h4.873v133.702h-4.873c-5.523 0-10 4.478-10 10s4.477 10 10 10h4.873v46.829c0 5.522 4.477 10 10 10h404c5.522 0 10-4.478 10-10v-267.359c0-5.522-4.478-10-10-10zm-10 267.36h-384v-36.829h5.255c5.523 0 10-4.478 10-10s-4.477-10-10-10h-5.255v-133.703h5.255c5.523 0 10-4.478 10-10s-4.477-10-10-10h-5.255v-36.828h384z"/><path d="m170.305 323.682c47.656 0 86.427-38.771 86.427-86.427s-38.771-86.427-86.427-86.427-86.427 38.771-86.427 86.427 38.77 86.427 86.427 86.427zm0-152.854c36.628 0 66.427 29.799 66.427 66.427s-29.799 66.427-66.427 66.427-66.427-29.799-66.427-66.427 29.799-66.427 66.427-66.427z"/><path d="m170.305 275.967c21.346 0 38.711-17.366 38.711-38.712s-17.366-38.712-38.711-38.712-38.712 17.366-38.712 38.712 17.366 38.712 38.712 38.712zm0-57.424c10.317 0 18.711 8.395 18.711 18.712s-8.394 18.712-18.711 18.712c-10.318 0-18.712-8.395-18.712-18.712s8.394-18.712 18.712-18.712z"/><path d="m297.526 192.361h11.745c5.522 0 10-4.478 10-10s-4.478-10-10-10h-11.745c-5.522 0-10 4.478-10 10s4.478 10 10 10z"/><path d="m346.952 192.361h11.745c5.522 0 10-4.478 10-10s-4.478-10-10-10h-11.745c-5.522 0-10 4.478-10 10s4.478 10 10 10z"/><path d="m396.378 192.361h11.744c5.522 0 10-4.478 10-10s-4.478-10-10-10h-11.744c-5.522 0-10 4.478-10 10s4.477 10 10 10z"/><path d="m297.526 228.957h11.745c5.522 0 10-4.478 10-10s-4.478-10-10-10h-11.745c-5.522 0-10 4.478-10 10s4.478 10 10 10z"/><path d="m346.952 228.957h11.745c5.522 0 10-4.478 10-10s-4.478-10-10-10h-11.745c-5.522 0-10 4.478-10 10s4.478 10 10 10z"/><path d="m396.378 228.957h11.744c5.522 0 10-4.478 10-10s-4.478-10-10-10h-11.744c-5.522 0-10 4.478-10 10s4.477 10 10 10z"/><path d="m297.526 265.553h11.745c5.522 0 10-4.478 10-10s-4.478-10-10-10h-11.745c-5.522 0-10 4.478-10 10s4.478 10 10 10z"/><path d="m346.952 265.553h11.745c5.522 0 10-4.478 10-10s-4.478-10-10-10h-11.745c-5.522 0-10 4.478-10 10s4.478 10 10 10z"/><path d="m396.378 265.553h11.744c5.522 0 10-4.478 10-10s-4.478-10-10-10h-11.744c-5.522 0-10 4.478-10 10s4.477 10 10 10z"/><path d="m346.952 302.148h11.745c5.522 0 10-4.478 10-10s-4.478-10-10-10h-11.745c-5.522 0-10 4.478-10 10s4.478 10 10 10z"/></g></svg>