<svg id="Capa_1" enable-background="new 0 0 512 512" height="512" viewBox="0 0 512 512" width="512" xmlns="http://www.w3.org/2000/svg"><path d="m502 413.424h-19.186v-357.526h8.59c5.523 0 10-4.478 10-10s-4.477-10-10-10h-470.808c-5.523 0-10 4.478-10 10s4.477 10 10 10h8.59v357.525h-19.186c-5.523 0-10 4.478-10 10v42.678c0 5.522 4.477 10 10 10h492c5.523 0 10-4.478 10-10v-42.678c0-5.522-4.477-9.999-10-9.999zm-39.186-357.526v357.525h-98.589v-117.3c0-31.992 16.416-61.148 43.912-77.993 2.869-1.758 4.662-4.84 4.771-8.203.109-3.362-1.48-6.555-4.229-8.495-25.026-17.66-39.38-52.505-39.38-95.599v-49.935zm-196.814 357.526v-194.794h109.663c-20.024 20.525-31.438 48.017-31.438 77.494v117.3zm-103.298-357.526h83.298v142.732h-111.003c18.021-22.759 27.705-54.741 27.705-92.796zm103.298 142.732v-142.732h83.298v49.936c0 38.055 9.685 70.037 27.705 92.796zm-20 20v194.794h-78.225v-117.3c0-29.477-11.414-56.969-31.438-77.494zm-196.814-162.732h93.516v49.936c0 43.094-14.354 77.938-39.38 95.599-2.749 1.94-4.338 5.133-4.229 8.495.109 3.363 1.902 6.445 4.771 8.203 27.496 16.845 43.912 46.001 43.912 77.993v117.3h-98.59zm442.814 400.204h-472v-22.678h472z"/></svg>