<svg id="Capa_1" enable-background="new 0 0 512 512" height="512" viewBox="0 0 512 512" width="512" xmlns="http://www.w3.org/2000/svg"><g><path d="m463.511 23.347h-69.582c-4.247-13.518-16.862-23.347-31.722-23.347-18.335 0-33.251 14.963-33.251 33.354v168.571c0 6.919 2.102 13.566 6.078 19.223l30.017 42.695v238.157c0 5.522 4.477 10 10 10h46.503c5.523 0 10-4.478 10-10v-248.734c0-6.919-2.102-13.566-6.078-19.223l-22.983-32.691h61.019c5.523 0 10-4.478 10-10v-158.005c-.001-5.523-4.478-10-10.001-10zm-51.958 229.919v238.734h-26.503v-231.319c0-2.059-.635-4.067-1.819-5.751l-31.836-45.283c-1.596-2.271-2.439-4.939-2.439-7.721v-168.572c0-7.363 5.944-13.354 13.251-13.354s13.252 5.991 13.252 13.354v161.156c0 2.059.635 4.067 1.819 5.751l31.835 45.283c1.596 2.27 2.44 4.94 2.44 7.722zm-16.095-71.914v-138.005h58.052v27.994h-10.225c-5.523 0-10 4.478-10 10s4.477 10 10 10h10.225v34.638h-28.097c-5.523 0-10 4.478-10 10s4.477 10 10 10h28.097v35.373z"/><path d="m303.378 0h-254.889c-5.523 0-10 4.478-10 10v43.292c0 5.522 4.477 10 10 10h13.104l18.674 379.551c.728 14.805 12.91 26.402 27.733 26.402h15.48v32.755c0 5.522 4.477 10 10 10h84.907c5.523 0 10-4.478 10-10v-32.755h15.48c14.823 0 27.004-11.597 27.733-26.402l18.674-379.551h13.104c5.523 0 10-4.478 10-10v-43.292c0-5.522-4.477-10-10-10zm-94.991 492h-64.907v-22.755h64.907zm43.238-50.141c-.204 4.142-3.612 7.386-7.758 7.386h-135.867c-4.146 0-7.554-3.244-7.757-7.385l-18.626-378.568h26.36v17.74c0 5.522 4.477 10 10 10s10-4.478 10-10v-17.74h37.958v17.74c0 5.522 4.477 10 10 10s10-4.478 10-10v-17.74h37.957v17.74c0 5.522 4.477 10 10 10s10-4.478 10-10v-17.74h26.36zm41.753-398.567h-234.889v-23.292h234.889z"/><path d="m232.649 125.67h-113.43c-2.737 0-5.355 1.122-7.243 3.104-1.888 1.983-2.88 4.652-2.745 7.387l13.755 279.575c.262 5.325 4.656 9.509 9.988 9.509h85.919c5.332 0 9.726-4.184 9.988-9.509l13.755-279.575c.135-2.734-.857-5.403-2.745-7.387-1.887-1.982-4.505-3.104-7.242-3.104zm-23.275 279.575h-66.879l-12.772-259.575h92.422z"/></g></svg>