<svg id="Capa_1" enable-background="new 0 0 512 512" height="512" viewBox="0 0 512 512" width="512" xmlns="http://www.w3.org/2000/svg"><g><path d="m483.032 68.32h-454.064c-15.973 0-28.968 12.995-28.968 28.968v317.425c0 15.973 12.995 28.967 28.968 28.967h454.064c15.973 0 28.968-12.995 28.968-28.967v-317.425c0-15.973-12.995-28.968-28.968-28.968zm8.968 346.392c0 4.945-4.022 8.967-8.968 8.967h-454.064c-4.945 0-8.968-4.022-8.968-8.967v-317.424c0-4.945 4.022-8.967 8.968-8.967h454.064c4.945 0 8.968 4.022 8.968 8.967z"/><path d="m387.553 128.32h-317.553c-5.522 0-10 4.477-10 10v235.36c0 5.523 4.478 10 10 10h317.553c5.522 0 10-4.477 10-10v-235.36c0-5.523-4.478-10-10-10zm-307.553 235.36v-215.36h297.553v65.863h-23.17c-.278 0-.554.004-.83.012v-31.875c0-5.523-4.478-10-10-10h-229.553c-5.522 0-10 4.477-10 10v147.36c0 5.523 4.478 10 10 10h229.553c5.522 0 10-4.477 10-10v-25.032c.276.008.552.012.83.012h23.17v59.02zm297.553-79.02h-23.17c-5.467 0-9.915-4.448-9.915-9.915v-30.646c0-5.467 4.448-9.915 9.915-9.915h23.17zm-44-62.013c-5.6 5.44-9.085 13.046-9.085 21.451v30.646c0 8.405 3.485 16.012 9.085 21.451v23.484h-209.553v-127.359h209.553z"/><path d="m447.111 320.081c-17.34 0-31.446 14.107-31.446 31.447s14.106 31.447 31.446 31.447 31.447-14.107 31.447-31.447c.001-17.34-14.107-31.447-31.447-31.447zm0 42.894c-6.312 0-11.446-5.135-11.446-11.447s5.135-11.447 11.446-11.447c6.313 0 11.447 5.135 11.447 11.447.001 6.312-5.134 11.447-11.447 11.447z"/><path d="m447.111 232.663c-17.34 0-31.446 14.107-31.446 31.447s14.106 31.447 31.446 31.447 31.447-14.107 31.447-31.447-14.107-31.447-31.447-31.447zm0 42.893c-6.312 0-11.446-5.135-11.446-11.447s5.135-11.447 11.446-11.447c6.313 0 11.447 5.135 11.447 11.447s-5.134 11.447-11.447 11.447z"/><path d="m468.559 178.191h-42.894c-5.522 0-10 4.477-10 10s4.478 10 10 10h42.894c5.522 0 10-4.477 10-10s-4.478-10-10-10z"/></g></svg>