<svg id="Capa_1" enable-background="new 0 0 512 512" height="512" viewBox="0 0 512 512" width="512" xmlns="http://www.w3.org/2000/svg"><path d="m502 74.987h-17.787c-18.607 0-33.745 15.138-33.745 33.745v7.485h-42.392v-7.146c0-19.46-15.832-35.293-35.292-35.293h-233.568c-19.46 0-35.293 15.833-35.293 35.293v7.146h-42.391v-7.485c0-18.607-15.138-33.745-33.745-33.745h-17.787c-5.523 0-10 4.477-10 10v214.639c0 5.523 4.477 10 10 10h17.787c18.607 0 33.745-15.138 33.745-33.745v-7.485h42.392v159.825c0 5.523 4.477 10 10 10h233.568c5.522 0 10-4.477 10-10v-64.076h40.585c5.522 0 10-4.477 10-10v-85.749h42.392v7.485c0 18.607 15.138 33.745 33.745 33.745h17.786c5.522 0 10-4.477 10-10v-214.639c0-5.523-4.478-10-10-10zm-440.468 105.443h42.392v23.754h-42.392zm62.391 158.983h213.568v26.234h-213.568zm233.568-158.983h30.585v23.754h-30.585zm50.585 0h42.392v23.754h-42.392zm42.392-20h-92.977v-24.213h92.977zm-77.684-66.652c8.432 0 15.292 6.86 15.292 15.293v7.146h-30.585v-7.146c0-8.432 6.861-15.293 15.293-15.293zm-248.861 15.293c0-8.433 6.86-15.293 15.293-15.293h201.763c-2.235 4.629-3.488 9.817-3.488 15.293v210.342h-213.568zm-20 27.146v24.213h-42.391v-24.213zm-62.391 139.664c0 7.579-6.166 13.745-13.745 13.745h-7.787v-194.639h7.787c7.579 0 13.745 6.166 13.745 13.745zm20-27.485v-24.213h42.392v24.213zm62.391 169.826v-32.575h213.568v32.575zm264.153-74.076h-30.585v-75.749h30.585zm-30.585-95.75v-24.213h92.977v24.213zm134.509 41.23h-7.787c-7.579 0-13.745-6.166-13.745-13.745v-167.149c0-7.579 6.166-13.745 13.745-13.745h7.787z"/></svg>