<svg id="Capa_1" enable-background="new 0 0 512 512" height="512" viewBox="0 0 512 512" width="512" xmlns="http://www.w3.org/2000/svg"><g><path d="m473.243 304.287h-48.625v-37.328c0-33.565-27.307-60.873-60.872-60.873s-60.873 27.307-60.873 60.873v37.328h-93.745v-37.328c0-33.565-27.307-60.873-60.873-60.873-33.565 0-60.872 27.307-60.872 60.873v37.328h-48.626c-5.523 0-10 4.477-10 10s4.477 10 10 10h3.777v143.608c0 5.523 4.477 10 10 10h406.931c5.523 0 10-4.477 10-10v-143.608h3.777c5.523 0 10-4.477 10-10s-4.476-10-9.999-10zm-150.37-37.328c0-22.537 18.335-40.873 40.873-40.873s40.872 18.335 40.872 40.873v37.328h-81.745zm-215.49 0c0-22.537 18.335-40.873 40.872-40.873s40.873 18.335 40.873 40.873v37.328h-81.745zm1.213 190.936v-90.947h294.809v90.947zm340.869 0h-26.061v-100.947c0-5.523-4.477-10-10-10h-314.808c-5.523 0-10 4.477-10 10v100.947h-26.061v-133.608h386.931v133.608z"/><path d="m433.479 34.105c-43.296 0-78.521 35.221-78.521 78.514s35.225 78.514 78.521 78.514 78.521-35.221 78.521-78.514-35.225-78.514-78.521-78.514zm0 137.028c-32.269 0-58.521-26.25-58.521-58.514s26.252-58.514 58.521-58.514 58.521 26.249 58.521 58.514-26.252 58.514-58.521 58.514z"/><path d="m458.834 117.829-15.355-10.489v-22.015c0-5.523-4.477-10-10-10s-10 4.477-10 10v27.294c0 3.304 1.631 6.394 4.359 8.257l19.715 13.467c1.726 1.179 3.688 1.744 5.632 1.744 3.192 0 6.33-1.525 8.266-4.36 3.115-4.56 1.944-10.783-2.617-13.898z"/><path d="m256 191.133c43.296 0 78.521-35.221 78.521-78.514s-35.225-78.514-78.521-78.514-78.521 35.221-78.521 78.514 35.225 78.514 78.521 78.514zm0-137.028c32.269 0 58.521 26.25 58.521 58.514s-26.252 58.514-58.521 58.514-58.521-26.25-58.521-58.514 26.252-58.514 58.521-58.514z"/><path d="m230.958 122.619h25.042c5.523 0 10-4.477 10-10v-27.294c0-5.523-4.477-10-10-10s-10 4.477-10 10v17.294h-15.042c-5.523 0-10 4.477-10 10s4.477 10 10 10z"/><path d="m157.042 112.619c0-43.293-35.225-78.514-78.521-78.514s-78.521 35.221-78.521 78.514 35.225 78.514 78.521 78.514 78.521-35.221 78.521-78.514zm-137.042 0c0-32.265 26.252-58.514 58.521-58.514s58.521 26.25 58.521 58.514-26.252 58.514-58.521 58.514-58.521-26.249-58.521-58.514z"/><path d="m88.521 112.619v-27.294c0-5.523-4.477-10-10-10s-10 4.477-10 10v23.064l-16.103 15.627c-3.963 3.847-4.058 10.177-.212 14.141 1.961 2.021 4.568 3.036 7.177 3.036 2.509 0 5.021-.938 6.963-2.824l19.138-18.574c1.942-1.883 3.037-4.472 3.037-7.176z"/></g></svg>