<svg id="Capa_1" enable-background="new 0 0 512.003 512.003" height="512" viewBox="0 0 512.003 512.003" width="512" xmlns="http://www.w3.org/2000/svg"><path d="m447.661 88.906h-72.77l32.806-74.89c2.216-5.059-.088-10.957-5.147-13.172-5.06-2.218-10.956.089-13.172 5.147l-36.322 82.916h-288.714c-5.523 0-10 4.477-10 10v85.703c0 24.55 15.69 45.864 38.332 53.509v10.074c0 28.105 22.879 50.97 51.002 50.97h59.763c11.806 0 21.412 9.594 21.412 21.386v171.456h-79.488c-5.523 0-10 4.477-10 10s4.477 10 10 10h221.277c5.523 0 10-4.477 10-10s-4.477-10-10-10h-79.488v-171.458c0-11.792 9.605-21.386 21.412-21.386h59.763c28.123 0 51.002-22.865 51.002-50.97v-10.074c22.642-7.646 38.332-28.959 38.332-53.509v-85.702c0-5.523-4.477-10-10-10zm-10 95.703c0 17.722-12.651 32.833-30.081 35.929-4.773.848-8.251 4.998-8.251 9.846v17.808c0 17.077-13.908 30.97-31.002 30.97h-59.763c-22.834 0-41.412 18.565-41.412 41.386v171.456h-22.301v-171.457c0-22.82-18.577-41.386-41.412-41.386h-59.763c-17.095 0-31.002-13.893-31.002-30.97v-17.808c0-4.848-3.478-8.998-8.251-9.846-17.43-3.097-30.081-18.207-30.081-35.929v-75.703h269.954l-10.814 24.686h-224.417c-5.523 0-10 4.477-10 10v41.017c0 5.737 4.075 10.626 9.689 11.624l28.643 5.089v25.737c0 15.117 12.305 27.416 27.43 27.416h182.35c15.125 0 27.43-12.299 27.43-27.416v-25.737l28.644-5.089c5.614-.998 9.688-5.887 9.688-11.624v-41.017c0-5.523-4.477-10-10-10h-47.622l10.814-24.686h71.531v75.704zm-288.515-1.513-30.081-5.345v-24.16h273.874v24.16l-30.081 5.345c-4.773.848-8.251 4.998-8.251 9.846v34.117c0 4.089-3.333 7.416-7.43 7.416h-182.35c-4.097 0-7.43-3.327-7.43-7.416v-34.117c0-4.848-3.478-8.997-8.251-9.846z"/></svg>