<svg id="Capa_1" enable-background="new 0 0 512 512" height="512" viewBox="0 0 512 512" width="512" xmlns="http://www.w3.org/2000/svg"><g><path d="m502 323.52h-15.064v-239.09c0-5.523-4.478-10-10-10h-10.173v-18.801c0-5.523-4.478-10-10-10s-10 4.477-10 10v18.801h-10.174c-5.522 0-10 4.477-10 10v182.579c-6.045-3.576-13.092-5.629-20.609-5.629h-299.959c-7.517 0-14.564 2.053-20.609 5.629v-182.579c0-5.523-4.478-10-10-10h-10.175v-18.801c0-5.523-4.478-10-10-10s-10 4.477-10 10v18.801h-10.173c-5.522 0-10 4.477-10 10v239.09h-15.064c-5.522 0-10 4.477-10 10v55.089c0 20.093 16.031 36.511 35.975 37.138v30.623c0 5.523 4.478 10 10 10h80.632c5.522 0 10-4.477 10-10v-30.604h238.787v30.604c0 5.523 4.478 10 10 10h80.632c5.522 0 10-4.477 10-10v-30.623c19.943-.626 35.974-17.045 35.974-37.138v-55.089c0-5.523-4.478-10-10-10zm-55.411-187.233h20.347v187.233h-20.347zm20.347-41.857v21.857h-20.347v-21.857zm-360.915 186.95h299.959c11.364 0 20.609 9.247 20.609 20.613v21.527h-341.178v-21.527c0-11.366 9.245-20.613 20.61-20.613zm-40.61-186.95v21.857h-20.347v-21.857zm-20.347 41.857h20.347v187.233h-20.347zm71.542 310.084h-60.631v-20.604h60.632v20.604zm339.419 0h-60.632v-20.604h60.632zm35.975-57.762c0 9.46-7.696 17.157-17.157 17.157h-437.686c-9.461 0-17.157-7.697-17.157-17.157v-45.089h472z"/><path d="m325.347 364.644h-10.75c-5.522 0-10 4.477-10 10s4.478 10 10 10h10.75c5.522 0 10-4.477 10-10s-4.478-10-10-10z"/><path d="m379.357 364.644h-10.751c-5.522 0-10 4.477-10 10s4.478 10 10 10h10.751c5.522 0 10-4.477 10-10s-4.477-10-10-10z"/><path d="m433.367 364.644h-10.751c-5.522 0-10 4.477-10 10s4.478 10 10 10h10.751c5.522 0 10-4.477 10-10s-4.477-10-10-10z"/><path d="m193.242 166.97c16.733-16.736 39.021-25.953 62.758-25.953s46.024 9.217 62.758 25.953c1.952 1.953 4.512 2.929 7.071 2.929s5.118-.976 7.07-2.929c3.906-3.905 3.906-10.236.001-14.142-20.511-20.513-47.821-31.811-76.9-31.811s-56.39 11.298-76.9 31.811c-3.905 3.906-3.905 10.237.001 14.142 3.904 3.905 10.237 3.905 14.141 0z"/><path d="m299.238 196.492c2.559 0 5.118-.976 7.07-2.928 3.906-3.905 3.906-10.237.001-14.143-13.418-13.421-31.286-20.813-50.309-20.813s-36.89 7.392-50.31 20.813c-3.905 3.906-3.905 10.237.001 14.142 3.904 3.905 10.237 3.905 14.142 0 9.643-9.644 22.486-14.955 36.167-14.955s26.524 5.311 36.167 14.955c1.952 1.953 4.512 2.929 7.071 2.929z"/><path d="m232.279 206.015c-3.904 3.906-3.903 10.237.002 14.142s10.237 3.904 14.143-.001c2.558-2.559 5.959-3.967 9.576-3.967s7.019 1.409 9.576 3.967c1.953 1.953 4.513 2.93 7.072 2.93s5.118-.976 7.07-2.928c3.905-3.905 3.906-10.236.002-14.142-6.336-6.337-14.76-9.827-23.721-9.827s-17.384 3.489-23.72 9.826z"/></g></svg>