<svg id="Capa_1" enable-background="new 0 0 512 512" height="512" viewBox="0 0 512 512" width="512" xmlns="http://www.w3.org/2000/svg"><g><path d="m306.991 41.17h-114.817c-5.523 0-10 4.477-10 10s4.477 10 10 10h114.817c5.522 0 10-4.477 10-10s-4.477-10-10-10z"/><path d="m405.726 126.676h-7.59v-73.144c0-29.518-24.015-53.532-53.532-53.532h-190.043c-29.518 0-53.532 24.014-53.532 53.532v73.515c-17.932 2.555-31.764 18.011-31.764 36.638v184.63c0 18.627 13.832 34.083 31.764 36.638v73.515c0 29.518 24.015 53.532 53.532 53.532h190.042c29.518 0 53.532-24.014 53.532-53.532v-73.145h7.59c20.406 0 37.009-16.602 37.009-37.009v-184.63c.001-20.406-16.602-37.008-37.008-37.008zm-284.697-73.144c0-18.489 15.042-33.532 33.532-33.532h190.042c18.49 0 33.532 15.042 33.532 33.532v73.145h-257.106zm257.107 404.936c0 18.489-15.042 33.532-33.532 33.532h-190.043c-18.49 0-33.532-15.042-33.532-33.532v-1.801h257.107zm0-21.801h-257.107v-51.344h257.107zm44.599-88.352c0 9.379-7.63 17.009-17.009 17.009h-299.452c-9.379 0-17.009-7.63-17.009-17.009v-80.841h333.469v80.841zm0-100.841h-333.47v-46.194h333.469v46.194zm0-66.194h-333.47v-17.595c0-9.379 7.63-17.009 17.009-17.009h299.452c9.379 0 17.009 7.63 17.009 17.009z"/><path d="m311.834 344.146h67.045c5.522 0 10-4.477 10-10v-37.593c0-5.523-4.478-10-10-10h-67.045c-5.522 0-10 4.477-10 10v37.593c0 5.523 4.478 10 10 10zm10-37.593h47.045v17.593h-47.045z"/><path d="m133.121 344.146h126.68c5.522 0 10-4.477 10-10s-4.478-10-10-10h-126.68c-5.523 0-10 4.477-10 10s4.477 10 10 10z"/></g></svg>