<svg id="Capa_1" enable-background="new 0 0 512 512" height="512" viewBox="0 0 512 512" width="512" xmlns="http://www.w3.org/2000/svg"><g><path d="m437.019 74.981c-48.352-48.353-112.639-74.981-181.019-74.981s-132.667 26.628-181.019 74.981c-48.353 48.352-74.981 112.639-74.981 181.019s26.628 132.667 74.981 181.019c48.352 48.353 112.639 74.981 181.019 74.981s132.667-26.628 181.019-74.981c48.353-48.352 74.981-112.639 74.981-181.019s-26.628-132.667-74.981-181.019zm-181.019 417.019c-130.131 0-236-105.869-236-236s105.869-236 236-236 236 105.869 236 236-105.869 236-236 236z"/><path d="m269.788 106.795c-52.289 0-94.83 42.541-94.83 94.83 0 52.29 42.541 94.83 94.83 94.83s94.83-42.541 94.83-94.83c-.001-52.289-42.541-94.83-94.83-94.83zm0 169.66c-41.261 0-74.83-33.569-74.83-74.83s33.568-74.83 74.83-74.83 74.83 33.568 74.83 74.83-33.569 74.83-74.83 74.83z"/><path d="m442.632 256.833c0-19.088-10.67-35.977-27.259-44.247.271-3.646.407-7.311.407-10.96 0-80.501-65.492-145.993-145.993-145.993s-145.994 65.492-145.994 145.993 65.493 145.994 145.994 145.994c10.887 0 21.695-1.2 32.226-3.572 13.061 18.323 34.292 29.429 57.083 29.429 38.632 0 70.062-31.43 70.062-70.062 0-3.908-.323-7.801-.964-11.632 9.245-9.232 14.438-21.655 14.438-34.95zm-31.528 23.392c-3.186 2.451-4.594 6.571-3.575 10.459 1.082 4.13 1.63 8.413 1.63 12.729 0 27.604-22.458 50.062-50.062 50.062-18.161 0-34.936-9.87-43.778-25.757-1.798-3.23-5.178-5.138-8.737-5.138-.896 0-1.804.121-2.7.372-11.041 3.096-22.511 4.666-34.093 4.666-69.473 0-125.994-56.521-125.994-125.994s56.521-125.993 125.994-125.993 125.993 56.521 125.993 125.993c0 5.399-.345 10.835-1.026 16.159-.618 4.835 2.34 9.412 7.003 10.833 12.486 3.807 20.875 15.146 20.875 28.215-.002 9.23-4.204 17.756-11.53 23.394z"/><path d="m229.266 368.035c-.729 0-1.463.022-2.205.067-2.14.129-4.31.195-6.451.195-55.688 0-101.949-43.576-105.316-99.205-1.192-19.695-18.098-34.963-38.11-33.759-19.814 1.2-34.958 18.296-33.759 38.11 2.862 47.273 24.013 90.649 59.559 122.136 32.554 28.837 74.313 44.719 117.587 44.719 3.591 0 7.238-.11 10.842-.328 19.814-1.2 34.958-18.296 33.759-38.11-1.149-18.967-16.921-33.825-35.906-33.825zm.939 51.971c-3.203.194-6.444.292-9.634.292-38.383 0-75.433-14.095-104.326-39.689-31.546-27.945-50.318-66.433-52.856-108.374-.533-8.807 6.198-16.405 15.001-16.938.333-.02.667-.03.997-.03 8.43 0 15.433 6.604 15.943 15.034 4.006 66.167 59.035 117.997 125.28 117.997 2.543 0 5.121-.078 7.657-.232 8.85-.524 16.411 6.242 16.941 15.003.533 8.806-6.198 16.404-15.003 16.937z"/><path d="m326.021 383.225c-21.282 0-38.596 17.314-38.596 38.596s17.314 38.596 38.596 38.596 38.596-17.314 38.596-38.596-17.314-38.596-38.596-38.596zm0 57.191c-10.254 0-18.596-8.342-18.596-18.596s8.342-18.596 18.596-18.596 18.596 8.342 18.596 18.596-8.342 18.596-18.596 18.596z"/></g></svg>