<svg id="Capa_1" enable-background="new 0 0 512 512" height="512" viewBox="0 0 512 512" width="512" xmlns="http://www.w3.org/2000/svg"><g><path d="m266 319.331v-6.701c0-5.523-4.478-10-10-10s-10 4.477-10 10v6.701c0 5.523 4.478 10 10 10s10-4.477 10-10z"/><path d="m316.951 329.069-4.737 4.738c-3.905 3.906-3.905 10.237.001 14.142 1.952 1.953 4.511 2.929 7.07 2.929s5.119-.977 7.071-2.929l4.737-4.738c3.905-3.906 3.905-10.237-.001-14.142-3.904-3.905-10.237-3.905-14.141 0z"/><path d="m195.049 329.069c-3.903-3.904-10.236-3.906-14.142 0-3.906 3.905-3.906 10.236-.001 14.142l4.737 4.738c1.952 1.953 4.512 2.929 7.071 2.929s5.118-.976 7.07-2.929c3.906-3.905 3.906-10.236.001-14.142z"/><path d="m480.719 25.713h-449.438c-17.248 0-31.281 14.033-31.281 31.281v181.414c0 17.249 14.033 31.281 31.281 31.281h449.438c17.248 0 31.281-14.033 31.281-31.281v-181.414c0-17.248-14.033-31.281-31.281-31.281zm-39.443 20v50.649c0 4.628-3.766 8.394-8.394 8.394h-353.765c-4.628 0-8.394-3.765-8.394-8.394v-50.649zm50.724 192.695c0 6.22-5.061 11.281-11.281 11.281h-449.438c-6.221 0-11.281-5.061-11.281-11.281v-181.414c0-6.221 5.061-11.281 11.281-11.281h19.442v50.649c0 15.656 12.737 28.394 28.394 28.394h353.766c15.656 0 28.394-12.737 28.394-28.394v-50.649h19.442c6.221 0 11.281 5.061 11.281 11.281z"/><path d="m451.276 169.096h-390.552c-5.522 0-10 4.477-10 10s4.478 10 10 10h390.553c5.522 0 10-4.477 10-10s-4.478-10-10.001-10z"/><path d="m178.639 209.394h-117.915c-5.522 0-10 4.477-10 10s4.478 10 10 10h117.915c5.522 0 10-4.477 10-10s-4.478-10-10-10z"/><path d="m451.276 209.394h-117.915c-5.522 0-10 4.477-10 10s4.478 10 10 10h117.915c5.522 0 10-4.477 10-10s-4.477-10-10-10z"/><path d="m389.043 85.234h17.361c5.522 0 10-4.477 10-10s-4.478-10-10-10h-17.361c-5.522 0-10 4.477-10 10s4.478 10 10 10z"/><path d="m334.571 85.234h17.361c5.522 0 10-4.477 10-10s-4.478-10-10-10h-17.361c-5.522 0-10 4.477-10 10s4.478 10 10 10z"/><path d="m280.894 343.819h-49.787c-11.85 0-21.489 9.64-21.489 21.489v99.489c0 11.849 9.64 21.489 21.489 21.489h49.787c11.85 0 21.489-9.64 21.489-21.489v-99.489c0-11.849-9.64-21.489-21.489-21.489zm-49.788 20h49.787c.821 0 1.489.668 1.489 1.489v29.745h-52.766v-29.745c.001-.821.669-1.489 1.49-1.489zm49.788 102.468h-49.787c-.821 0-1.489-.668-1.489-1.489v-49.745h52.766v49.745c-.001.821-.669 1.489-1.49 1.489z"/></g></svg>