<svg id="Capa_1" enable-background="new 0 0 512 512" height="512" viewBox="0 0 512 512" width="512" xmlns="http://www.w3.org/2000/svg"><g><path d="m179.418 296.348c8.579 11.513 25.916 28.972 51.638 52.014h-3.651c-5.522 0-10 4.478-10 10s4.478 10 10 10h57.191c5.522 0 10-4.478 10-10s-4.478-10-10-10h-3.651c25.722-23.041 43.059-40.501 51.638-52.014 17.121-22.978 26.271-47.975 26.46-72.287.204-26.133-10.025-50.264-29.583-69.787-19.527-19.722-45.611-30.599-73.468-30.623-27.849.024-53.941 10.908-73.425 30.599-19.574 19.527-29.813 43.668-29.608 69.812.188 24.311 9.338 49.308 26.459 72.286zm17.319-127.987c15.748-15.915 36.798-24.69 59.254-24.711 22.474.021 43.523 8.796 59.271 24.711.016.016.03.031.046.046 31.015 30.942 31.488 75.388 1.236 115.99-8.999 12.077-29.359 32.03-60.545 59.337-31.186-27.307-51.546-47.26-60.545-59.336-30.251-40.603-29.777-85.048 1.283-116.037z"/><path d="m235.202 264.992c5.522 0 10-4.478 10-10v-21.084h21.596v21.084c0 5.522 4.478 10 10 10s10-4.478 10-10v-60.106c0-5.522-4.478-10-10-10s-10 4.478-10 10v19.022h-21.596v-19.022c0-5.522-4.478-10-10-10s-10 4.478-10 10v60.106c0 5.523 4.478 10 10 10z"/><path d="m351.021 0h-190.042c-29.518 0-53.531 24.015-53.531 53.532v404.936c0 29.518 24.014 53.532 53.531 53.532h190.043c29.518 0 53.531-24.015 53.531-53.532v-404.936c0-29.517-24.014-53.532-53.532-53.532zm-190.042 20h190.043c18.489 0 33.531 15.042 33.531 33.532v383.135h-257.106v-383.135c0-18.49 15.042-33.532 33.532-33.532zm190.042 472h-190.042c-18.489 0-33.531-15.042-33.531-33.532v-1.801h257.105v1.801c0 18.49-15.042 33.532-33.532 33.532z"/><path d="m198.592 61.17h114.816c5.522 0 10-4.478 10-10s-4.478-10-10-10h-114.816c-5.522 0-10 4.478-10 10s4.477 10 10 10z"/></g></svg>