<svg id="Capa_1" enable-background="new 0 0 512 512" height="512" viewBox="0 0 512 512" width="512" xmlns="http://www.w3.org/2000/svg"><g><path d="m389.994 235.862c-4.204-3.583-10.515-3.077-14.098 1.126l-10.926 12.824-5.849-4.539c-4.361-3.385-10.645-2.594-14.031 1.77-3.386 4.363-2.594 10.645 1.77 14.031l13.396 10.396c1.82 1.412 3.979 2.1 6.126 2.1 2.833 0 5.645-1.2 7.617-3.515l17.121-20.096c3.582-4.204 3.078-10.515-1.126-14.097z"/><path d="m171.042 61.17h114.816c5.522 0 10-4.477 10-10s-4.478-10-10-10h-114.816c-5.522 0-10 4.477-10 10s4.478 10 10 10z"/><path d="m228.45 169.707c-5.522 0-10 4.477-10 10v20.102c0 5.523 4.478 10 10 10s10-4.477 10-10v-20.102c0-5.523-4.477-10-10-10z"/><path d="m177.131 169.707c-5.522 0-10 4.477-10 10v20.102c0 5.523 4.478 10 10 10s10-4.477 10-10v-20.102c0-5.523-4.478-10-10-10z"/><path d="m279.77 209.809c5.522 0 10-4.477 10-10v-20.102c0-5.523-4.478-10-10-10s-10 4.477-10 10v20.102c0 5.523 4.477 10 10 10z"/><path d="m228.45 233.868c-5.522 0-10 4.477-10 10v20.102c0 5.523 4.478 10 10 10s10-4.477 10-10v-20.102c0-5.523-4.477-10-10-10z"/><path d="m177.131 233.868c-5.522 0-10 4.477-10 10v20.102c0 5.523 4.478 10 10 10s10-4.477 10-10v-20.102c0-5.523-4.478-10-10-10z"/><path d="m279.77 273.97c5.522 0 10-4.477 10-10v-20.102c0-5.523-4.478-10-10-10s-10 4.477-10 10v20.102c0 5.523 4.477 10 10 10z"/><path d="m432.103 253.919c0-32.293-24-59.086-55.1-63.479v-136.908c0-29.518-24.014-53.532-53.531-53.532h-190.043c-29.518 0-53.531 24.014-53.531 53.532v404.937c0 29.518 24.014 53.532 53.531 53.532h190.043c29.518 0 53.531-24.014 53.531-53.532v-141.071c31.1-4.393 55.1-31.186 55.1-63.479zm-298.674-233.919h190.043c18.489 0 33.531 15.042 33.531 33.532v137.22c-13.023 2.259-24.712 8.461-33.787 17.328v-77.76c0-5.523-4.478-10-10-10h-169.531c-5.522 0-10 4.477-10 10v251.526c-5.265.287-9.447 4.647-9.447 9.985 0 5.523 4.478 10 10 10h188.426c5.522 0 10-4.477 10-10 0-5.337-4.182-9.698-9.447-9.985v-82.087c9.075 8.867 20.764 15.069 33.787 17.328v119.581h-257.107v-383.136c0-18.49 15.042-33.532 33.532-33.532zm115.66 361.83h-41.277v-59.212h41.277zm10-79.213h-61.277c-5.522 0-10 4.477-10 10v69.212h-34.127v-241.51h149.531v241.51h-34.127v-69.212c0-5.523-4.478-10-10-10zm64.383 189.383h-190.043c-18.489 0-33.531-15.042-33.531-33.532v-1.801h257.105v1.801c0 18.49-15.042 33.532-33.531 33.532zm44.521-193.971c-24.322 0-44.11-19.788-44.11-44.11 0-24.323 19.788-44.11 44.11-44.11s44.109 19.788 44.109 44.11c.001 24.322-19.787 44.11-44.109 44.11z"/></g></svg>