<svg id="Capa_1" enable-background="new 0 0 512 512" height="512" viewBox="0 0 512 512" width="512" xmlns="http://www.w3.org/2000/svg"><g><path d="m143.566 224.868c-79.163 0-143.566 64.403-143.566 143.566s64.403 143.566 143.566 143.566 143.566-64.403 143.566-143.566-64.403-143.566-143.566-143.566zm0 267.132c-68.134 0-123.566-55.432-123.566-123.566s55.432-123.566 123.566-123.566 123.566 55.432 123.566 123.566-55.432 123.566-123.566 123.566z"/><path d="m143.566 268.868c-54.901 0-99.566 44.665-99.566 99.566s44.665 99.566 99.566 99.566 99.566-44.665 99.566-99.566-44.665-99.566-99.566-99.566zm0 179.132c-43.873 0-79.566-35.693-79.566-79.566s35.693-79.566 79.566-79.566 79.566 35.693 79.566 79.566-35.694 79.566-79.566 79.566z"/><path d="m368.434 0c-79.162 0-143.565 64.403-143.565 143.566s64.403 143.566 143.565 143.566c79.163 0 143.566-64.403 143.566-143.566s-64.403-143.566-143.566-143.566zm0 267.132c-68.134 0-123.565-55.432-123.565-123.566s55.431-123.566 123.565-123.566 123.566 55.432 123.566 123.566-55.432 123.566-123.566 123.566z"/><path d="m368.434 44c-5.522 0-10 4.477-10 10s4.478 10 10 10c43.873 0 79.566 35.693 79.566 79.566 0 5.523 4.478 10 10 10s10-4.477 10-10c0-54.901-44.665-99.566-99.566-99.566z"/><path d="m401.143 173.594-36.744-.325c4.789-7.825 6.349-14.272 5.836-23.289h9.549c5.522 0 10-4.477 10-10s-4.478-10-10-10h-14.581c-2.539-4.08-6.127-11.093-6.102-16.77 0-.014 0-.027 0-.041 0-.013 0-.025 0-.038-.009-2.35.505-5.342 4.579-7.643 5.795-3.272 14.494-2.719 18.675-.177 3.781 2.299 6.714 5.513 7.473 8.187 1.507 5.313 7.033 8.4 12.349 6.892 5.313-1.507 8.399-7.036 6.892-12.349-2.154-7.597-8.104-14.821-16.321-19.818-10.928-6.644-27.287-6.708-38.9-.15-9.377 5.295-14.747 14.411-14.745 25.022v.028.075.005c-.011 5.915 1.615 11.757 3.673 16.776h-2.676c-5.522 0-10 4.477-10 10s4.478 10 10 10h10.102c.617 6.818-.235 9.712-6.285 17.839l-7.197 9.05c-2.38 2.992-2.846 7.079-1.2 10.529 1.646 3.451 5.115 5.661 8.938 5.695l56.511.5h.091c5.481 0 9.949-4.419 9.998-9.912.045-5.521-4.393-10.037-9.915-10.086z"/><path d="m154.854 361.355c-.843-.298-1.659-.588-2.449-.871v-21.109c1.256.682 2.165 1.472 2.695 2.227 3.172 4.521 9.41 5.613 13.93 2.441 4.521-3.172 5.614-9.409 2.441-13.93-3.785-5.394-10.435-9.958-19.066-11.776-.004-5.52-4.479-9.993-10-9.993-5.523 0-10 4.477-10 10v.677c-.738.188-1.482.395-2.232.621-10.779 3.247-18.913 13.691-19.781 25.397-.862 11.623 5.295 21.708 16.472 26.978 1.28.603 3.171 1.4 5.542 2.341v26.335c-2.703-1.127-5.061-2.681-6.672-4.681-3.463-4.301-9.759-4.979-14.061-1.515-4.301 3.464-4.979 9.76-1.515 14.061 5.752 7.141 14.036 11.161 22.26 13.054.271 5.281 4.638 9.479 9.987 9.479 5.101 0 9.309-3.819 9.923-8.753 14.654-2.508 24.951-12.186 26.628-25.389 1.937-15.256-7.975-29.893-24.102-35.594zm-24.518-14.834c.139-1.872.922-3.724 2.068-5.168v10.614c-1.549-1.469-2.229-3.271-2.068-5.446zm28.778 47.909c-.43 3.389-2.804 5.927-6.709 7.329v-19.514c5.22 3.329 7.2 8.319 6.709 12.185z"/><path d="m376.628 315.897c-1.871-2.675-4.93-4.268-8.194-4.268s-6.323 1.593-8.194 4.268l-52.781 75.459c-2.137 3.055-2.396 7.045-.675 10.352 1.723 3.307 5.141 5.38 8.869 5.38h18.401v74.36c0 5.523 4.478 10 10 10h48.761c5.522 0 10-4.477 10-10v-74.36h18.401c3.729 0 7.146-2.074 8.869-5.38 1.722-3.307 1.462-7.296-.675-10.352zm16.186 71.191c-5.522 0-10 4.477-10 10v74.36h-28.761v-74.36c0-5.523-4.478-10-10-10h-9.203l33.583-48.012 33.584 48.012z"/><path d="m135.372 196.103c1.871 2.675 4.93 4.268 8.194 4.268s6.323-1.593 8.194-4.268l52.782-75.459c2.137-3.055 2.397-7.045.675-10.352-1.723-3.307-5.141-5.38-8.869-5.38h-18.401v-74.36c0-5.523-4.477-10-10-10h-48.761c-5.523 0-10 4.477-10 10v74.36h-18.402c-3.728 0-7.146 2.074-8.869 5.38-1.722 3.307-1.462 7.296.675 10.352zm-16.186-71.191c5.523 0 10-4.477 10-10v-74.36h28.761v74.36c0 5.523 4.477 10 10 10h9.203l-33.583 48.012-33.583-48.012z"/></g></svg>