<svg id="Capa_1" enable-background="new 0 0 512 512" height="512" viewBox="0 0 512 512" width="512" xmlns="http://www.w3.org/2000/svg"><g><path d="m388.501 260.337h-22.28v-133.276c0-16.741-13.629-30.36-30.381-30.36h-23.344v-86.701c0-5.523-4.477-10-10-10h-156.519c-5.523 0-10 4.477-10 10v86.701h-23.345c-16.752 0-30.381 13.62-30.381 30.36v354.579c0 16.741 13.629 30.36 30.381 30.36h223.208c16.752 0 30.381-13.62 30.381-30.36v-138.869h22.28c22.744 0 41.248-18.49 41.248-41.217s-18.504-41.217-41.248-41.217zm-232.524-240.337h136.519v154.839h-136.519zm190.244 461.64c0 5.713-4.657 10.36-10.381 10.36h-223.208c-5.724 0-10.381-4.647-10.381-10.36v-354.579c0-5.713 4.657-10.36 10.381-10.36h23.345v58.139h-.605c-5.523 0-10 4.477-10 10s4.477 10 10 10h177.815c5.523 0 10-4.477 10-10s-4.477-10-10-10h-.691v-58.139h23.344c5.724 0 10.381 4.647 10.381 10.36v133.276h-52.203c-14.291-23.269-39.474-37.483-67.12-37.483-43.433 0-78.769 35.305-78.769 78.701s35.335 78.7 78.769 78.7c27.646 0 52.83-14.214 67.12-37.483h52.203zm42.28-158.869h-100.328c-3.755 0-7.193 2.104-8.903 5.446-10.108 19.761-30.176 32.037-52.373 32.037-32.405 0-58.769-26.333-58.769-58.7 0-32.368 26.363-58.701 58.769-58.701 22.197 0 42.265 12.276 52.373 32.037 1.71 3.343 5.148 5.446 8.903 5.446h100.328c11.716 0 21.248 9.518 21.248 21.217s-9.532 21.218-21.248 21.218z"/><path d="m224.236 410.337c-5.523 0-10 4.477-10 10v32.691c0 5.523 4.477 10 10 10s10-4.477 10-10v-32.691c0-5.523-4.477-10-10-10z"/></g></svg>