<svg id="Capa_1" enable-background="new 0 0 512 512" height="512" viewBox="0 0 512 512" width="512" xmlns="http://www.w3.org/2000/svg"><g><path d="m329.481 149.779c1.893 2.035 4.546 3.191 7.324 3.191h47.134c5.522 0 10-4.477 10-10v-4.985c0-76.085-61.878-137.985-137.939-137.985s-137.939 61.9-137.939 137.985v335.782c0 21.082 17.146 38.233 38.223 38.233h199.434c21.076 0 38.223-17.151 38.223-38.233v-282.393c0-5.523-4.478-10-10-10h-67.86c-2.825 0-5.519 1.195-7.414 3.29-13.873 15.327-33.716 23.835-54.36 23.361-38.019-.884-68.463-31.371-69.31-69.408-.432-19.392 6.811-37.672 20.392-51.472 13.576-13.795 31.717-21.356 51.068-21.205 37.063.231 67.992 29.351 70.412 66.293.219 3.331.207 6.698-.035 10.009-.204 2.772.756 5.502 2.647 7.537zm-72.901-103.839c-.197-.001-.393-.001-.589-.001-24.584 0-47.599 9.638-64.859 27.178-17.404 17.685-26.685 41.104-26.132 65.946.521 23.413 9.994 45.506 26.675 62.209 16.681 16.704 38.759 26.203 62.165 26.748 24.925.557 48.964-9.083 66.523-26.645h53.576v272.393c0 10.054-8.175 18.233-18.223 18.233h-199.433c-10.048 0-18.223-8.179-18.223-18.233v-335.783c.001-65.057 52.908-117.985 117.94-117.985 63.353 0 115.199 50.229 117.834 112.97h-26.898c-.029-.683-.066-1.364-.111-2.044-3.102-47.359-42.742-84.689-90.245-84.986z"/><path d="m177.247 463.056h157.506c5.522 0 10-4.477 10-10v-208.807c0-3.591-1.925-6.906-5.044-8.685-3.117-1.78-6.951-1.752-10.043.076-22.226 13.131-47.698 20.072-73.666 20.072s-51.44-6.941-73.666-20.072c-3.093-1.828-6.927-1.855-10.043-.076-3.119 1.779-5.044 5.094-5.044 8.685v208.807c0 5.523 4.478 10 10 10zm10-202.314c21.462 9.83 44.929 14.97 68.753 14.97s47.291-5.14 68.753-14.97v182.314h-137.506z"/></g></svg>