<svg id="Capa_1" enable-background="new 0 0 512 512" height="512" viewBox="0 0 512 512" width="512" xmlns="http://www.w3.org/2000/svg"><g><path d="m484.378 26.44h-456.742c-15.239 0-27.636 12.405-27.636 27.653v286.57c0 15.24 12.391 27.639 27.622 27.639h195.43v97.258h-92.746c-5.523 0-10 4.477-10 10s4.477 10 10 10h251.389c5.522 0 10-4.477 10-10s-4.478-10-10-10h-92.746v-97.258h195.416c15.238 0 27.636-12.405 27.636-27.653v-286.569c-.001-15.241-12.393-27.64-27.623-27.64zm-215.43 439.12h-25.896v-97.258h25.896zm223.052-124.911c0 4.22-3.426 7.653-7.636 7.653h-456.742c-4.203 0-7.622-3.427-7.622-7.639v-286.57c0-4.22 3.426-7.653 7.636-7.653h456.742c4.203 0 7.622 3.427 7.622 7.64z"/><path d="m461.134 96.503c-6.89-3.427-12.571-9.11-15.995-16.004-1.689-3.4-5.159-5.55-8.956-5.55h-360.366c-3.797 0-7.266 2.15-8.956 5.55-3.425 6.894-9.106 12.577-15.996 16.004-3.398 1.69-5.547 5.158-5.547 8.954v183.83c0 3.795 2.148 7.264 5.547 8.954 6.89 3.427 12.57 9.11 15.996 16.004 1.689 3.4 5.159 5.55 8.956 5.55h360.365c3.797 0 7.267-2.15 8.956-5.551 3.424-6.893 9.105-12.577 15.995-16.003 3.398-1.69 5.547-5.158 5.547-8.954v-183.83c.001-3.796-2.148-7.264-5.546-8.954zm-14.453 187.006c-6.479 4.229-12.052 9.803-16.278 16.285h-348.806c-4.227-6.482-9.798-12.057-16.278-16.285v-172.275c6.479-4.229 12.051-9.803 16.278-16.285h348.805c4.227 6.482 9.799 12.057 16.278 16.285v172.275z"/><path d="m417.008 172.399-23.997-3.49-10.733-21.769c-1.684-3.416-5.161-5.578-8.969-5.578s-7.285 2.163-8.969 5.578l-10.734 21.77-23.996 3.49c-3.766.548-6.894 3.186-8.07 6.804s-.197 7.592 2.526 10.249l17.37 16.948-4.102 23.934c-.643 3.752.9 7.544 3.98 9.781 3.081 2.236 7.164 2.529 10.533.758l21.461-11.294 21.461 11.294c1.465.771 3.063 1.15 4.656 1.15 2.072 0 4.135-.644 5.877-1.908 3.08-2.237 4.623-6.028 3.98-9.781l-4.102-23.934 17.37-16.948c2.724-2.657 3.703-6.63 2.526-10.249-1.175-3.62-4.303-6.257-8.068-6.805zm-29.553 23.356c-2.354 2.297-3.429 5.604-2.873 8.846l1.565 9.134-8.182-4.306c-1.458-.767-3.058-1.15-4.657-1.15s-3.199.383-4.657 1.15l-8.182 4.306 1.565-9.134c.556-3.242-.519-6.549-2.873-8.846l-6.639-6.478 9.165-1.333c3.258-.474 6.073-2.521 7.529-5.474l4.091-8.295 4.09 8.295c1.455 2.953 4.271 5 7.529 5.474l9.166 1.333z"/><path d="m299.699 172.399-23.997-3.49-10.733-21.769c-1.684-3.416-5.161-5.578-8.969-5.578s-7.285 2.163-8.969 5.578l-10.733 21.77-23.997 3.49c-3.766.548-6.894 3.185-8.071 6.804-1.176 3.619-.197 7.592 2.527 10.249l17.37 16.948-4.101 23.934c-.643 3.752.9 7.544 3.981 9.781 3.08 2.236 7.163 2.529 10.533.758l21.46-11.295 21.461 11.294c1.465.771 3.063 1.15 4.656 1.15 2.072 0 4.135-.644 5.877-1.908 3.08-2.237 4.623-6.028 3.98-9.781l-4.102-23.934 17.37-16.948c2.724-2.657 3.703-6.63 2.526-10.249-1.175-3.619-4.303-6.256-8.069-6.804zm-29.553 23.356c-2.354 2.297-3.429 5.604-2.873 8.846l1.565 9.134-8.182-4.306c-1.458-.767-3.058-1.15-4.657-1.15s-3.199.383-4.657 1.15l-8.182 4.306 1.565-9.134c.555-3.242-.519-6.549-2.873-8.846l-6.638-6.478 9.165-1.333c3.258-.474 6.074-2.521 7.53-5.474l4.09-8.295 4.09 8.294c1.455 2.953 4.271 5 7.529 5.474l9.166 1.333z"/><path d="m182.391 172.399-23.997-3.49-10.733-21.769c-1.684-3.416-5.161-5.578-8.969-5.578s-7.285 2.163-8.969 5.578l-10.733 21.77-23.997 3.49c-3.766.548-6.894 3.185-8.071 6.804-1.176 3.619-.197 7.592 2.527 10.249l17.37 16.948-4.101 23.934c-.643 3.752.9 7.544 3.981 9.781 3.08 2.236 7.163 2.529 10.533.758l21.461-11.294 21.46 11.294c1.464.771 3.063 1.15 4.656 1.15 2.072 0 4.135-.644 5.876-1.908 3.081-2.237 4.624-6.028 3.981-9.781l-4.101-23.934 17.37-16.948c2.724-2.657 3.703-6.63 2.527-10.249-1.177-3.62-4.305-6.257-8.071-6.805zm-29.553 23.356c-2.354 2.297-3.428 5.604-2.873 8.846l1.565 9.134-8.181-4.306c-2.916-1.534-6.399-1.533-9.314 0l-8.182 4.306 1.565-9.134c.555-3.242-.519-6.549-2.873-8.846l-6.638-6.478 9.165-1.333c3.258-.474 6.074-2.521 7.53-5.474l4.09-8.295 4.089 8.294c1.456 2.953 4.272 5 7.53 5.474l9.166 1.333z"/></g></svg>