<svg id="Capa_1" enable-background="new 0 0 512 512" height="512" viewBox="0 0 512 512" width="512" xmlns="http://www.w3.org/2000/svg"><g><path d="m403.585 334.997c33.527-44.996 51.442-93.767 51.811-141.041.393-50.366-19.393-96.938-57.21-134.678-37.794-38.179-88.285-59.231-142.195-59.278-53.905.047-104.408 21.109-142.159 59.261-37.832 37.743-57.621 84.321-57.228 134.696.369 47.274 18.284 96.045 51.811 141.041 13.673 18.351 38.726 44.468 74.773 77.975h-58.605c-27.351 0-49.602 22.212-49.602 49.514s22.251 49.514 49.602 49.514h262.835c27.351 0 49.602-22.212 49.602-49.514s-22.251-49.514-49.602-49.514h-58.605c36.046-33.508 61.099-59.625 74.772-77.976zm-16.168 97.975c16.323 0 29.602 13.24 29.602 29.514s-13.279 29.514-29.602 29.514h-262.834c-16.323 0-29.602-13.24-29.602-29.514s13.279-29.514 29.602-29.514h80.454c11.832 10.68 24.607 21.993 38.318 33.929 2.713 2.362 5.067 4.411 5.622 4.923 1.869 1.844 4.391 2.882 7.024 2.882s5.155-1.038 7.024-2.882c.555-.512 2.908-2.561 5.622-4.923 13.711-11.936 26.487-23.249 38.318-33.929zm-131.417 18.421c-67.883-59.12-112.141-102.3-131.547-128.346-64.887-87.083-63.543-182.735 3.551-249.673 34.015-34.377 79.475-53.332 127.987-53.374 48.53.042 93.99 18.997 128.005 53.374l.045.045c67.049 66.893 68.392 162.544 3.505 249.627-19.405 26.047-63.663 69.227-131.546 128.347z"/><path d="m256 60.903c-76.126 0-138.06 61.799-138.06 137.76s61.934 137.761 138.06 137.761 138.06-61.799 138.06-137.761-61.934-137.76-138.06-137.76zm0 255.521c-65.098 0-118.06-52.827-118.06-117.761 0-64.933 52.961-117.76 118.06-117.76s118.06 52.827 118.06 117.76c0 64.934-52.962 117.761-118.06 117.761z"/><path d="m295.442 131.667c-5.523 0-10 4.477-10 10v45.042h-58.885v-45.042c0-5.523-4.477-10-10-10s-10 4.477-10 10v113.993c0 5.523 4.477 10 10 10s10-4.477 10-10v-48.951h58.885v48.951c0 5.523 4.477 10 10 10s10-4.477 10-10v-113.993c0-5.523-4.477-10-10-10z"/></g></svg>