<svg id="Capa_1" enable-background="new 0 0 512 512" height="512" viewBox="0 0 512 512" width="512" xmlns="http://www.w3.org/2000/svg"><g><path d="m438.201 0h-364.402c-5.522 0-10 4.477-10 10v492c0 5.523 4.478 10 10 10h364.402c5.522 0 10-4.477 10-10v-492c0-5.523-4.477-10-10-10zm-172.201 492v-295.979c0-5.523-4.478-10-10-10s-10 4.477-10 10v295.979h-71.532v-321.042h163.064v321.042zm162.201 0h-70.669v-331.042c0-5.523-4.478-10-10-10h-183.064c-5.522 0-10 4.477-10 10v331.042h-70.669v-472h344.402z"/><path d="m164.468 118.277h183.064c5.522 0 10-4.477 10-10v-53.702c0-5.523-4.478-10-10-10h-183.064c-5.522 0-10 4.477-10 10v53.702c0 5.523 4.477 10 10 10zm10-53.702h163.064v33.702h-163.064z"/><path d="m390.41 267.435 3.609-3.61 3.609 3.61c1.953 1.953 4.512 2.929 7.071 2.929s5.119-.977 7.071-2.929c3.905-3.905 3.905-10.237 0-14.142l-10.681-10.68c-3.906-3.905-10.236-3.905-14.143 0l-10.681 10.68c-3.905 3.905-3.905 10.237 0 14.142 3.909 3.905 10.239 3.905 14.145 0z"/><path d="m386.948 310.158c1.953 1.953 4.512 2.929 7.071 2.929s5.118-.976 7.071-2.929l10.681-10.68c3.905-3.905 3.905-10.237 0-14.142-3.904-3.905-10.234-3.905-14.143 0l-3.609 3.61-3.609-3.61c-3.906-3.905-10.238-3.905-14.143 0s-3.905 10.237 0 14.142z"/></g></svg>