<svg id="Capa_1" enable-background="new 0 0 512 512" height="512" viewBox="0 0 512 512" width="512" xmlns="http://www.w3.org/2000/svg"><g><path d="m424.585 61.633-182.719-61.116c-2.538-.85-5.313-.645-7.702.568-2.388 1.213-4.189 3.333-5 5.886l-10.85 34.138h-127.729c-5.523 0-10 4.477-10 10v409.782c0 5.523 4.477 10 10 10h69.355l121.358 40.592c1.032.346 2.104.517 3.172.517 1.56 0 3.113-.365 4.53-1.085 2.388-1.213 4.188-3.333 5-5.886l10.85-34.138h51.559c21.511 0 39.011-17.5 39.011-39.011v-245.963l35.523-111.772c1.655-5.208-1.176-10.779-6.358-12.512zm-179.435-38.929 55.026 18.405h-60.876zm32.864 466.592-55.026-18.405h60.875zm78.395-38.405h-255.824v-389.782h124.84c.144.003.288.003.431 0h130.554c10.482 0 19.011 8.528 19.011 19.011v104.053c-.003.138-.003.275 0 .412v247.295c-.001 10.483-8.53 19.011-19.012 19.011zm39.011-331.004v-39.767c0-2.525-.241-4.995-.702-7.388l14.181 4.743z"/><path d="m238.002 263.798c46.445 0 84.231-37.825 84.231-84.318s-37.786-84.318-84.231-84.318-84.23 37.825-84.23 84.318 37.785 84.318 84.23 84.318zm-63.455-74.318h13.623c.973 14.387 4.038 27.969 8.923 39.549-11.806-9.791-20.068-23.722-22.546-39.549zm73.455 50.219v-50.219h19.789c-1.851 24.165-10.259 42.448-19.789 50.219zm0-70.219v-50.219c9.53 7.771 17.938 26.053 19.789 50.219zm-20-50.219v50.219h-19.79c1.851-24.166 10.26-42.449 19.79-50.219zm0 70.219v50.219c-9.53-7.771-17.939-26.053-19.79-50.219zm50.908 39.55c4.885-11.58 7.951-25.163 8.923-39.55h13.624c-2.477 15.828-10.74 29.76-22.547 39.55zm22.547-59.55h-13.624c-.973-14.387-4.038-27.971-8.924-39.551 11.807 9.791 20.071 23.723 22.548 39.551zm-104.364-39.55c-4.885 11.58-7.95 25.163-8.923 39.55h-13.623c2.478-15.828 10.741-29.759 22.546-39.55z"/><path d="m334.539 293.156h-193.073c-5.523 0-10 4.477-10 10v107c0 5.523 4.477 10 10 10h193.073c5.522 0 10-4.477 10-10v-107c0-5.523-4.478-10-10-10zm-10 107h-173.073v-87h173.073z"/></g></svg>