<svg id="Capa_1" enable-background="new 0 0 512 512" height="512" viewBox="0 0 512 512" width="512" xmlns="http://www.w3.org/2000/svg"><g><path d="m473.917 73.484h-381.533c-20.999 0-38.083 17.096-38.083 38.11v18.668h-16.205c-21.006 0-38.096 17.09-38.096 38.095v232.063c0 21.006 17.09 38.096 38.096 38.096h381.506c21.006 0 38.096-17.09 38.096-38.096v-18.681h16.219c20.999 0 38.083-17.096 38.083-38.11v-232.035c0-21.014-17.084-38.11-38.083-38.11zm-435.821 76.778h381.506c9.979 0 18.096 8.118 18.096 18.096v18.706h-417.698v-18.706c0-9.979 8.118-18.096 18.096-18.096zm-18.096 56.801h417.699v48.859h-417.699zm399.603 211.453h-381.507c-9.979 0-18.096-8.118-18.096-18.096v-124.498h417.699v124.498c0 9.978-8.118 18.096-18.096 18.096zm72.397-74.887c0 9.986-8.112 18.11-18.083 18.11h-16.219v-193.382c0-21.006-17.09-38.096-38.096-38.096h-345.301v-18.668c0-9.986 8.112-18.11 18.083-18.11h381.534c9.971 0 18.083 8.124 18.083 18.11v232.036z"/><path d="m154.729 325.758c-.035-.092-.07-.183-.108-.274-1.74-4.233-5.819-6.967-10.396-6.967h-.011c-4.581.004-8.661 2.748-10.394 6.988-.031.076-.061.151-.09.228l-20.544 53.993c-1.964 5.162.628 10.938 5.79 12.902 5.163 1.965 10.939-.628 12.902-5.79l2.665-7.003h19.199l2.63 6.975c1.51 4.006 5.316 6.475 9.358 6.475 1.172 0 2.365-.208 3.526-.646 5.168-1.948 7.777-7.717 5.829-12.885zm-12.575 34.076 2.033-5.344 2.015 5.344z"/><path d="m232.421 318.517c-.033 0-.066 0-.099 0-5.522.053-9.956 4.574-9.903 10.096l.223 23.056-19.821-28.729c-2.485-3.603-7.025-5.171-11.205-3.869-4.179 1.302-7.026 5.17-7.026 9.547v54.663c0 5.523 4.477 10 10 10s10-4.477 10-10v-22.559l18.697 27.101c2.769 4.003 7.624 5.762 12.082 4.368 4.522-1.411 7.561-5.733 7.56-10.852l-.511-52.919c-.053-5.49-4.519-9.903-9.997-9.903z"/><path d="m300.588 376.088-21.991-21.237 19.873-18.285c4.064-3.739 4.328-10.065.588-14.13-3.739-4.064-10.065-4.328-14.13-.588l-12.66 11.648v-4.98c0-5.523-4.477-10-10-10s-10 4.477-10 10v54.765c0 5.523 4.477 10 10 10s10-4.477 10-10v-6.739l14.427 13.932c1.941 1.875 4.445 2.807 6.946 2.807 2.618 0 5.232-1.021 7.194-3.053 3.836-3.973 3.726-10.304-.247-14.14z"/><path d="m101.271 341.118c0-12.462-10.134-22.601-22.589-22.601h-15.893c-5.523 0-10 4.477-10 10v54.765c0 2.66 1.06 5.21 2.945 7.087 1.875 1.866 4.411 2.913 7.055 2.913h.044s14.6-.065 18.624-.065c13.635 0 24.727-11.099 24.727-24.741 0-6.798-2.755-12.965-7.206-17.441 1.468-2.997 2.293-6.362 2.293-9.917zm-28.482-2.601h5.893c1.428 0 2.589 1.167 2.589 2.601 0 1.435-1.162 2.602-2.589 2.602-1.189 0-3.445.006-5.893.015zm8.668 34.699c-1.67 0-5.154.011-8.668.024v-9.506h.054 8.614c2.606 0 4.727 2.126 4.727 4.741s-2.121 4.741-4.727 4.741z"/><path d="m395.87 318.517h-63.567c-5.523 0-10 4.477-10 10v54.765c0 5.523 4.477 10 10 10h63.567c5.523 0 10-4.477 10-10v-54.765c0-5.523-4.477-10-10-10zm-10 54.764h-43.567v-34.765h43.567z"/></g></svg>